<?xml version="1.0" encoding="iso-8859-1"?>
<!-- Uploaded to: SVG Repo, www.svgrepo.com, Generator: SVG Repo Mixer Tools -->
<svg fill="#000000" height="800px" width="800px" version="1.1" id="Layer_1" xmlns="http://www.w3.org/2000/svg" xmlns:xlink="http://www.w3.org/1999/xlink" 
	 viewBox="0 0 470 470" xml:space="preserve">
<g>
	<g>
		<g>
			<path d="M307.5,0h-145C130.794,0,105,25.794,105,57.5v405c0,4.142,3.357,7.5,7.5,7.5h245c4.143,0,7.5-3.358,7.5-7.5v-405
				C365,25.794,339.206,0,307.5,0z M350,455H120V57.5c0-23.435,19.065-42.5,42.5-42.5h145c23.435,0,42.5,19.065,42.5,42.5V455z"/>
			<path d="M257.5,415h-45c-4.143,0-7.5,3.358-7.5,7.5c0,4.142,3.357,7.5,7.5,7.5h45c4.143,0,7.5-3.358,7.5-7.5
				C265,418.358,261.643,415,257.5,415z"/>
			<path d="M295,130c0-33.084-26.916-60-60-60s-60,26.916-60,60s26.916,60,60,60S295,163.084,295,130z M235,175
				c-24.813,0-45-20.187-45-45s20.187-45,45-45s45,20.187,45,45S259.813,175,235,175z"/>
			<path d="M257.5,122.5c-4.143,0-7.5,3.358-7.5,7.5c0,8.271-6.729,15-15,15s-15-6.729-15-15s6.729-15,15-15
				c4.143,0,7.5-3.358,7.5-7.5c0-4.142-3.357-7.5-7.5-7.5c-16.542,0-30,13.458-30,30s13.458,30,30,30s30-13.458,30-30
				C265,125.858,261.643,122.5,257.5,122.5z"/>
			<path d="M235,40c-49.626,0-90,40.374-90,90v110c0,49.626,40.374,90,90,90c49.626,0,90-40.374,90-90v-40
				c0-4.142-3.357-7.5-7.5-7.5s-7.5,3.358-7.5,7.5v40c0,41.355-33.645,75-75,75c-41.355,0-75-33.645-75-75V130
				c0-41.355,33.645-75,75-75s75,33.645,75,75v40c0,4.142,3.357,7.5,7.5,7.5s7.5-3.358,7.5-7.5v-40C325,80.374,284.626,40,235,40z"
				/>
			<path d="M207.5,272.5c0,15.164,12.337,27.5,27.5,27.5c15.163,0,27.5-12.336,27.5-27.5S250.163,245,235,245
				C219.837,245,207.5,257.336,207.5,272.5z M247.5,272.5c0,6.893-5.607,12.5-12.5,12.5s-12.5-5.607-12.5-12.5S228.107,260,235,260
				S247.5,265.607,247.5,272.5z"/>
		</g>
	</g>
</g>
</svg>