<?xml version="1.0" encoding="UTF-8" standalone="no"?>
<svg
   xml:space="preserve"
   viewBox="0 0 1080 1920"
   height="1920"
   width="1080"
   y="0px"
   x="0px"
   id="adv-dashboard"
   version="1.1"
   sodipodi:docname="adv-dashboard-portrait.svg"
   inkscape:version="1.3.2 (091e20e, 2023-11-25, custom)"
   xmlns:inkscape="http://www.inkscape.org/namespaces/inkscape"
   xmlns:sodipodi="http://sodipodi.sourceforge.net/DTD/sodipodi-0.dtd"
   xmlns="http://www.w3.org/2000/svg"
   xmlns:svg="http://www.w3.org/2000/svg"
   xmlns:rdf="http://www.w3.org/1999/02/22-rdf-syntax-ns#"
   xmlns:cc="http://creativecommons.org/ns#"
   xmlns:dc="http://purl.org/dc/elements/1.1/">
<sodipodi:namedview
   id="namedview264"
   pagecolor="#ffffff"
   bordercolor="#000000"
   borderopacity="0.25"
   inkscape:showpageshadow="2"
   inkscape:pageopacity="0.0"
   inkscape:pagecheckerboard="true"
   inkscape:deskcolor="#d1d1d1"
   showgrid="false"
   inkscape:zoom="0.70710678"
   inkscape:cx="509.11688"
   inkscape:cy="139.30004"
   inkscape:window-width="1500"
   inkscape:window-height="921"
   inkscape:window-x="-7"
   inkscape:window-y="-7"
   inkscape:window-maximized="1"
   inkscape:current-layer="adv-dashboard"
   inkscape:lockguides="false"
   showguides="false" />


	<metadata
   id="metadata2490">
<rdf:RDF>
  <cc:Work
   rdf:about="">
    <dc:format>image/svg+xml</dc:format>


	  <dc:type
   rdf:resource="http://purl.org/dc/dcmitype/StillImage" />


	  

<cc:license
   rdf:resource="http://scripts.sil.org/OFL" />
</cc:Work>

<cc:License
   rdf:about="http://scripts.sil.org/OFL">
<cc:permits
   rdf:resource="http://scripts.sil.org/pub/OFL/Reproduction" />
<cc:permits
   rdf:resource="http://scripts.sil.org/pub/OFL/Distribution" />
<cc:permits
   rdf:resource="http://scripts.sil.org/pub/OFL/Embedding" />
<cc:permits
   rdf:resource="http://scripts.sil.org/pub/OFL/DerivativeWorks" />
<cc:requires
   rdf:resource="http://scripts.sil.org/pub/OFL/Notice" />
<cc:requires
   rdf:resource="http://scripts.sil.org/pub/OFL/Attribution" />
<cc:requires
   rdf:resource="http://scripts.sil.org/pub/OFL/ShareAlike" />
<cc:requires
   rdf:resource="http://scripts.sil.org/pub/OFL/DerivativeRenaming" />
<cc:requires
   rdf:resource="http://scripts.sil.org/pub/OFL/BundlingWhenSelling" />
</cc:License>
</rdf:RDF>


</metadata>



	<defs
   id="defs2488" />


	<style
   id="style833"
   type="text/css">
	.st0{fill:#FFFFFF;}
	.st1{fill:#E6E6E6;}
	.st2{font-family:'Agency FB';}
	.st3{font-size:57.9964px;}
	.st4{font-size:58px;}
	.st5{font-family:'Agency FB';}
	.st6{font-size:70.086px;}
	.st7{fill:none;stroke:#FFFFFF;stroke-width:3;stroke-miterlimit:10;}
	.st8{fill:#00FFFF;}
	.st9{font-family:'Agency FB';}
	.st10{font-size:51.8355px;}
	.st11{fill:none;stroke:#00FFFF;stroke-width:3;stroke-miterlimit:10;}
	.st12{font-size:39.0412px;}
	.st13{opacity:0.42;fill:#999999;stroke:#F2F2F2;stroke-width:3;stroke-miterlimit:10;}
	.st14{fill:#03AE1E}
	.st15{font-family:'Agency FB';}
	.st16{font-size:208.6746px;}
	.st17{font-family:'Agency FB';}
	.st18{font-size:78.4849px;}
	.st19{font-size:45.758px;}
	.st20{font-family:'Agency FB';}
	.st21{font-size:125.7355px;}
	.st22{font-size:81.3368px;}
	.st23{font-size:76.2271px;}
	.st24{font-size:63.7281px;}
	.st25{fill:none;stroke:#FFFFFF;stroke-width:9;stroke-miterlimit:10;}
	.st26{fill:none;stroke:#FFFFFF;stroke-width:9;stroke-linecap:round;stroke-miterlimit:10;}
	.st27{fill:#08F6FB;}
	.st28{fill:#FF0000;}
	.st29{opacity:0.32;fill:#FFFFFF;}
	.st30{fill:#8F7676;}
	.st31{fill:none;stroke:#FFD42A;stroke-width:5;stroke-miterlimit:10;}
	.st32{fill:#FFD42A;}
	.st33{fill:none;stroke:#FF0000;stroke-width:9;stroke-linecap:round;stroke-miterlimit:10;}
	.st34{fill:#FCC914;}
	.st41{fill:none;stroke:#000;stroke-width:2;stroke-linecap:round;}
	.st42{fill:none;stroke:#808080;stroke-width:2;stroke-linecap:round;}
	.st43{font-family:'Agency FB';}
	.st44{font-size:48px;}
	.st45{font-size:12px;}
</style>


	<rect
   id="background"
   style="display:inline"
   height="1080"
   width="1920"
   x="-1920"
   y="-11.249433"
   transform="rotate(-90,5.6247165,-5.6247165)" /><g
   id="dashboard"
   transform="translate(11.249433)"
   inkscape:label="dashboard">
z      
	
   <g
   id="g17033"
   inkscape:label="compass group"
   width="1080"
   height="1080"
   style="display:inline">
   



<g
   id="g7"
   inkscape:label="compass parts"
   transform="matrix(0.98684211,0,0,0.98684211,6.9572592,40.287728)"
   style="display:inline"><circle
     style="display:inline;opacity:1;fill:#202020;fill-opacity:0.9;stroke:#000000;stroke-width:4;stroke-dasharray:none;stroke-opacity:1"
     id="compassBack"
     cx="528.75055"
     cy="960"
     r="760" /><g
     id="compass"
     inkscape:label="compass">
<g
   id="compassGroup"
   transform="matrix(3,0,0,3,-221.24838,220.50195)"
   style="display:inline"
   inkscape:label="compassGroup">
  <g
   id="compassDrawing"
   style="fill:#ffffff;stroke:#ffffff">
    <g
   id="minutes"
   style="fill:#ffffff;stroke:#ffffff">
      <line
   id="line543"
   y2="61.900002"
   x2="250"
   y1="21.9"
   x1="250"
   class="st41"
   style="fill:#ffffff;stroke:#ffffff" />

		<line
   id="line545"
   y2="64.699997"
   x2="217.89999"
   y1="25.299999"
   x1="211"
   class="st41"
   style="fill:#ffffff;stroke:#ffffff" />

		<line
   id="line547"
   y2="73"
   x2="186.89999"
   y1="35.400002"
   x1="173.2"
   class="st41"
   style="fill:#ffffff;stroke:#ffffff" />

		<line
   id="line549"
   y2="86.599998"
   x2="157.7"
   y1="52"
   x1="137.7"
   class="st41"
   style="fill:#ffffff;stroke:#ffffff" />

		<line
   id="line551"
   y2="105.1"
   x2="131.3"
   y1="74.400002"
   x1="105.6"
   class="st41"
   style="fill:#ffffff;stroke:#ffffff" />

		<line
   id="line553"
   y2="127.8"
   x2="108.6"
   y1="102.1"
   x1="77.900002"
   class="st41"
   style="fill:#ffffff;stroke:#ffffff" />

		<line
   id="line555"
   y2="154.2"
   x2="90.099998"
   y1="134.2"
   x1="55.5"
   class="st41"
   style="fill:#ffffff;stroke:#ffffff" />

		<line
   id="line557"
   y2="183.39999"
   x2="76.5"
   y1="169.7"
   x1="38.900002"
   class="st41"
   style="fill:#ffffff;stroke:#ffffff" />

		<line
   id="line559"
   y2="214.39999"
   x2="68.199997"
   y1="207.5"
   x1="28.799999"
   class="st41"
   style="fill:#ffffff;stroke:#ffffff" />

		<line
   id="line561"
   y2="246.5"
   x2="65.400002"
   y1="246.5"
   x1="25.4"
   class="st41"
   style="fill:#ffffff;stroke:#ffffff" />

		<line
   id="line563"
   y2="278.60001"
   x2="68.199997"
   y1="285.5"
   x1="28.799999"
   class="st41"
   style="fill:#ffffff;stroke:#ffffff" />

		<line
   id="line565"
   y2="309.60001"
   x2="76.5"
   y1="323.29999"
   x1="38.900002"
   class="st41"
   style="fill:#ffffff;stroke:#ffffff" />

		<line
   id="line567"
   y2="338.79999"
   x2="90.099998"
   y1="358.79999"
   x1="55.5"
   class="st41"
   style="fill:#ffffff;stroke:#ffffff" />

		<line
   id="line569"
   y2="365.20001"
   x2="108.6"
   y1="390.89999"
   x1="77.900002"
   class="st41"
   style="fill:#ffffff;stroke:#ffffff" />

		<line
   id="line571"
   y2="387.89999"
   x2="131.3"
   y1="418.60001"
   x1="105.6"
   class="st41"
   style="fill:#ffffff;stroke:#ffffff" />

		<line
   id="line573"
   y2="406.39999"
   x2="157.7"
   y1="441"
   x1="137.7"
   class="st41"
   style="fill:#ffffff;stroke:#ffffff" />

		<line
   id="line575"
   y2="420"
   x2="186.89999"
   y1="457.60001"
   x1="173.2"
   class="st41"
   style="fill:#ffffff;stroke:#ffffff" />

		<line
   id="line577"
   y2="428.29999"
   x2="217.89999"
   y1="467.70001"
   x1="211"
   class="st41"
   style="fill:#ffffff;stroke:#ffffff" />

		<line
   id="line579"
   y2="431.10001"
   x2="250"
   y1="471.10001"
   x1="250"
   class="st41"
   style="fill:#ffffff;stroke:#ffffff" />

		<line
   id="line581"
   y2="428.29999"
   x2="282.10001"
   y1="467.70001"
   x1="289"
   class="st41"
   style="fill:#ffffff;stroke:#ffffff" />

		<line
   id="line583"
   y2="420"
   x2="313.10001"
   y1="457.60001"
   x1="326.79999"
   class="st41"
   style="fill:#ffffff;stroke:#ffffff" />

		<line
   id="line585"
   y2="406.39999"
   x2="342.29999"
   y1="441"
   x1="362.29999"
   class="st41"
   style="fill:#ffffff;stroke:#ffffff" />

		<line
   id="line587"
   y2="387.89999"
   x2="368.70001"
   y1="418.60001"
   x1="394.39999"
   class="st41"
   style="fill:#ffffff;stroke:#ffffff" />

		<line
   id="line589"
   y2="365.20001"
   x2="391.39999"
   y1="390.89999"
   x1="422.10001"
   class="st41"
   style="fill:#ffffff;stroke:#ffffff" />

		<line
   id="line591"
   y2="338.79999"
   x2="409.89999"
   y1="358.79999"
   x1="444.5"
   class="st41"
   style="fill:#ffffff;stroke:#ffffff" />

		<line
   id="line593"
   y2="309.60001"
   x2="423.5"
   y1="323.29999"
   x1="461.10001"
   class="st41"
   style="fill:#ffffff;stroke:#ffffff" />

		<line
   id="line595"
   y2="278.60001"
   x2="431.79999"
   y1="285.5"
   x1="471.20001"
   class="st41"
   style="fill:#ffffff;stroke:#ffffff" />

		<line
   id="line597"
   y2="246.5"
   x2="434.60001"
   y1="246.5"
   x1="474.60001"
   class="st41"
   style="fill:#ffffff;stroke:#ffffff" />

		<line
   id="line599"
   y2="214.39999"
   x2="431.79999"
   y1="207.5"
   x1="471.20001"
   class="st41"
   style="fill:#ffffff;stroke:#ffffff" />

		<line
   id="line601"
   y2="183.39999"
   x2="423.5"
   y1="169.7"
   x1="461.10001"
   class="st41"
   style="fill:#ffffff;stroke:#ffffff" />

		<line
   id="line603"
   y2="154.2"
   x2="409.89999"
   y1="134.2"
   x1="444.5"
   class="st41"
   style="fill:#ffffff;stroke:#ffffff" />

		<line
   id="line605"
   y2="127.8"
   x2="391.39999"
   y1="102.1"
   x1="422.10001"
   class="st41"
   style="fill:#ffffff;stroke:#ffffff" />

		<line
   id="line607"
   y2="105.1"
   x2="368.70001"
   y1="74.400002"
   x1="394.39999"
   class="st41"
   style="fill:#ffffff;stroke:#ffffff" />

		<line
   id="line609"
   y2="86.599998"
   x2="342.29999"
   y1="52"
   x1="362.29999"
   class="st41"
   style="fill:#ffffff;stroke:#ffffff" />

		<line
   id="line611"
   y2="73"
   x2="313.10001"
   y1="35.400002"
   x1="326.79999"
   class="st41"
   style="fill:#ffffff;stroke:#ffffff" />

		<line
   id="line613"
   y2="64.699997"
   x2="282.10001"
   y1="25.299999"
   x1="289"
   class="st41"
   style="fill:#ffffff;stroke:#ffffff" />

    </g>

	  <g
   id="seconds"
   style="fill:#ffffff;stroke:#ffffff">
      <line
   id="line616"
   y2="62"
   x2="243.60001"
   y1="37"
   x1="242.7"
   class="st41"
   style="fill:#ffffff;stroke:#ffffff" />

		  <line
   id="line618"
   y2="62.299999"
   x2="237.10001"
   y1="37.400002"
   x1="235.39999"
   class="st41"
   style="fill:#ffffff;stroke:#ffffff" />

		  <line
   id="line620"
   y2="62.900002"
   x2="230.7"
   y1="38"
   x1="228.10001"
   class="st41"
   style="fill:#ffffff;stroke:#ffffff" />

		  <line
   id="line622"
   y2="63.700001"
   x2="224.3"
   y1="38.900002"
   x1="220.8"
   class="st41"
   style="fill:#ffffff;stroke:#ffffff" />

		  <line
   id="line624"
   y2="65.900002"
   x2="211.60001"
   y1="41.5"
   x1="206.39999"
   class="st41"
   style="fill:#ffffff;stroke:#ffffff" />

		  <line
   id="line626"
   y2="67.400002"
   x2="205.3"
   y1="43.099998"
   x1="199.3"
   class="st41"
   style="fill:#ffffff;stroke:#ffffff" />

		  <line
   id="line628"
   y2="69.099998"
   x2="199.10001"
   y1="45"
   x1="192.2"
   class="st41"
   style="fill:#ffffff;stroke:#ffffff" />

		  <line
   id="line630"
   y2="70.900002"
   x2="193"
   y1="47.200001"
   x1="185.2"
   class="st41"
   style="fill:#ffffff;stroke:#ffffff" />

		  <line
   id="line632"
   y2="75.300003"
   x2="180.8"
   y1="52.200001"
   x1="171.5"
   class="st41"
   style="fill:#ffffff;stroke:#ffffff" />

		  <line
   id="line634"
   y2="77.900002"
   x2="174.89999"
   y1="55"
   x1="164.7"
   class="st41"
   style="fill:#ffffff;stroke:#ffffff" />

		  <line
   id="line636"
   y2="80.599998"
   x2="169.10001"
   y1="58.099998"
   x1="158.10001"
   class="st41"
   style="fill:#ffffff;stroke:#ffffff" />

		  <line
   id="line638"
   y2="83.5"
   x2="163.3"
   y1="61.400002"
   x1="151.60001"
   class="st41"
   style="fill:#ffffff;stroke:#ffffff" />

		  <line
   id="line640"
   y2="90"
   x2="152.2"
   y1="68.699997"
   x1="138.89999"
   class="st41"
   style="fill:#ffffff;stroke:#ffffff" />

		  <line
   id="line642"
   y2="93.5"
   x2="146.8"
   y1="72.699997"
   x1="132.8"
   class="st41"
   style="fill:#ffffff;stroke:#ffffff" />

		  <line
   id="line644"
   y2="97.199997"
   x2="141.5"
   y1="76.900002"
   x1="126.8"
   class="st41"
   style="fill:#ffffff;stroke:#ffffff" />

		  <line
   id="line646"
   y2="101"
   x2="136.3"
   y1="81.300003"
   x1="121"
   class="st41"
   style="fill:#ffffff;stroke:#ffffff" />

		  <line
   id="line648"
   y2="109.3"
   x2="126.5"
   y1="90.699997"
   x1="109.8"
   class="st41"
   style="fill:#ffffff;stroke:#ffffff" />

		  <line
   id="line650"
   y2="113.7"
   x2="121.8"
   y1="95.699997"
   x1="104.4"
   class="st41"
   style="fill:#ffffff;stroke:#ffffff" />

		  <line
   id="line652"
   y2="118.3"
   x2="117.2"
   y1="100.9"
   x1="99.199997"
   class="st41"
   style="fill:#ffffff;stroke:#ffffff" />

		  <line
   id="line654"
   y2="123"
   x2="112.8"
   y1="106.3"
   x1="94.199997"
   class="st41"
   style="fill:#ffffff;stroke:#ffffff" />

		  <line
   id="line656"
   y2="132.8"
   x2="104.5"
   y1="117.5"
   x1="84.800003"
   class="st41"
   style="fill:#ffffff;stroke:#ffffff" />

		  <line
   id="line658"
   y2="138"
   x2="100.7"
   y1="123.3"
   x1="80.400002"
   class="st41"
   style="fill:#ffffff;stroke:#ffffff" />

		  <line
   id="line660"
   y2="143.3"
   x2="97"
   y1="129.3"
   x1="76.199997"
   class="st41"
   style="fill:#ffffff;stroke:#ffffff" />

		  <line
   id="line662"
   y2="148.7"
   x2="93.5"
   y1="135.39999"
   x1="72.199997"
   class="st41"
   style="fill:#ffffff;stroke:#ffffff" />

		  <line
   id="line664"
   y2="159.8"
   x2="87"
   y1="148.10001"
   x1="64.900002"
   class="st41"
   style="fill:#ffffff;stroke:#ffffff" />

		  <line
   id="line666"
   y2="165.60001"
   x2="84.099998"
   y1="154.60001"
   x1="61.599998"
   class="st41"
   style="fill:#ffffff;stroke:#ffffff" />

		  <line
   id="line668"
   y2="171.39999"
   x2="81.400002"
   y1="161.2"
   x1="58.5"
   class="st41"
   style="fill:#ffffff;stroke:#ffffff" />

		  <line
   id="line670"
   y2="177.3"
   x2="78.800003"
   y1="168"
   x1="55.700001"
   class="st41"
   style="fill:#ffffff;stroke:#ffffff" />

		  <line
   id="line672"
   y2="189.5"
   x2="74.400002"
   y1="181.7"
   x1="50.700001"
   class="st41"
   style="fill:#ffffff;stroke:#ffffff" />

		  <line
   id="line674"
   y2="195.60001"
   x2="72.599998"
   y1="188.7"
   x1="48.5"
   class="st41"
   style="fill:#ffffff;stroke:#ffffff" />

		  <line
   id="line676"
   y2="201.8"
   x2="70.900002"
   y1="195.8"
   x1="46.599998"
   class="st41"
   style="fill:#ffffff;stroke:#ffffff" />

		  <line
   id="line678"
   y2="208.10001"
   x2="69.400002"
   y1="202.89999"
   x1="45"
   class="st41"
   style="fill:#ffffff;stroke:#ffffff" />

		  <line
   id="line680"
   y2="220.8"
   x2="67.199997"
   y1="217.3"
   x1="42.400002"
   class="st41"
   style="fill:#ffffff;stroke:#ffffff" />

		  <line
   id="line682"
   y2="227.2"
   x2="66.400002"
   y1="224.60001"
   x1="41.5"
   class="st41"
   style="fill:#ffffff;stroke:#ffffff" />

		  <line
   id="line684"
   y2="233.60001"
   x2="65.800003"
   y1="231.89999"
   x1="40.900002"
   class="st41"
   style="fill:#ffffff;stroke:#ffffff" />

		  <line
   id="line686"
   y2="240.10001"
   x2="65.5"
   y1="239.2"
   x1="40.5"
   class="st41"
   style="fill:#ffffff;stroke:#ffffff" />

		  <line
   id="line688"
   y2="252.89999"
   x2="65.5"
   y1="253.8"
   x1="40.5"
   class="st41"
   style="fill:#ffffff;stroke:#ffffff" />

		  <line
   id="line690"
   y2="259.39999"
   x2="65.800003"
   y1="261.10001"
   x1="40.900002"
   class="st41"
   style="fill:#ffffff;stroke:#ffffff" />

		  <line
   id="line692"
   y2="265.79999"
   x2="66.400002"
   y1="268.39999"
   x1="41.5"
   class="st41"
   style="fill:#ffffff;stroke:#ffffff" />

		  <line
   id="line694"
   y2="272.20001"
   x2="67.199997"
   y1="275.70001"
   x1="42.400002"
   class="st41"
   style="fill:#ffffff;stroke:#ffffff" />

		  <line
   id="line696"
   y2="284.89999"
   x2="69.400002"
   y1="290.10001"
   x1="45"
   class="st41"
   style="fill:#ffffff;stroke:#ffffff" />

		  <line
   id="line698"
   y2="291.20001"
   x2="70.900002"
   y1="297.20001"
   x1="46.599998"
   class="st41"
   style="fill:#ffffff;stroke:#ffffff" />

		  <line
   id="line700"
   y2="297.39999"
   x2="72.599998"
   y1="304.29999"
   x1="48.5"
   class="st41"
   style="fill:#ffffff;stroke:#ffffff" />

		  <line
   id="line702"
   y2="303.5"
   x2="74.400002"
   y1="311.29999"
   x1="50.700001"
   class="st41"
   style="fill:#ffffff;stroke:#ffffff" />

		  <line
   id="line704"
   y2="315.70001"
   x2="78.800003"
   y1="325"
   x1="55.700001"
   class="st41"
   style="fill:#ffffff;stroke:#ffffff" />

		  <line
   id="line706"
   y2="321.60001"
   x2="81.400002"
   y1="331.79999"
   x1="58.5"
   class="st41"
   style="fill:#ffffff;stroke:#ffffff" />

		  <line
   id="line708"
   y2="327.39999"
   x2="84.099998"
   y1="338.39999"
   x1="61.599998"
   class="st41"
   style="fill:#ffffff;stroke:#ffffff" />

		  <line
   id="line710"
   y2="333.20001"
   x2="87"
   y1="344.89999"
   x1="64.900002"
   class="st41"
   style="fill:#ffffff;stroke:#ffffff" />

		  <line
   id="line712"
   y2="344.29999"
   x2="93.5"
   y1="357.60001"
   x1="72.199997"
   class="st41"
   style="fill:#ffffff;stroke:#ffffff" />

		  <line
   id="line714"
   y2="349.70001"
   x2="97"
   y1="363.70001"
   x1="76.199997"
   class="st41"
   style="fill:#ffffff;stroke:#ffffff" />

		  <line
   id="line716"
   y2="355"
   x2="100.7"
   y1="369.70001"
   x1="80.400002"
   class="st41"
   style="fill:#ffffff;stroke:#ffffff" />

		  <line
   id="line718"
   y2="360.20001"
   x2="104.5"
   y1="375.5"
   x1="84.800003"
   class="st41"
   style="fill:#ffffff;stroke:#ffffff" />

		  <line
   id="line720"
   y2="370"
   x2="112.8"
   y1="386.70001"
   x1="94.199997"
   class="st41"
   style="fill:#ffffff;stroke:#ffffff" />

		  <line
   id="line722"
   y2="374.70001"
   x2="117.2"
   y1="392.10001"
   x1="99.199997"
   class="st41"
   style="fill:#ffffff;stroke:#ffffff" />

		  <line
   id="line724"
   y2="379.29999"
   x2="121.8"
   y1="397.29999"
   x1="104.4"
   class="st41"
   style="fill:#ffffff;stroke:#ffffff" />

		  <line
   id="line726"
   y2="383.70001"
   x2="126.5"
   y1="402.29999"
   x1="109.8"
   class="st41"
   style="fill:#ffffff;stroke:#ffffff" />

		  <line
   id="line728"
   y2="392"
   x2="136.3"
   y1="411.70001"
   x1="121"
   class="st41"
   style="fill:#ffffff;stroke:#ffffff" />

		  <line
   id="line730"
   y2="395.79999"
   x2="141.5"
   y1="416.10001"
   x1="126.8"
   class="st41"
   style="fill:#ffffff;stroke:#ffffff" />

		  <line
   id="line732"
   y2="399.5"
   x2="146.8"
   y1="420.29999"
   x1="132.8"
   class="st41"
   style="fill:#ffffff;stroke:#ffffff" />

		  <line
   id="line734"
   y2="403"
   x2="152.2"
   y1="424.29999"
   x1="138.89999"
   class="st41"
   style="fill:#ffffff;stroke:#ffffff" />

		  <line
   id="line736"
   y2="409.5"
   x2="163.3"
   y1="431.60001"
   x1="151.60001"
   class="st41"
   style="fill:#ffffff;stroke:#ffffff" />

		  <line
   id="line738"
   y2="412.39999"
   x2="169.10001"
   y1="434.89999"
   x1="158.10001"
   class="st41"
   style="fill:#ffffff;stroke:#ffffff" />

		  <line
   id="line740"
   y2="415.10001"
   x2="174.89999"
   y1="438"
   x1="164.7"
   class="st41"
   style="fill:#ffffff;stroke:#ffffff" />

		  <line
   id="line742"
   y2="417.70001"
   x2="180.8"
   y1="440.79999"
   x1="171.5"
   class="st41"
   style="fill:#ffffff;stroke:#ffffff" />

		  <line
   id="line744"
   y2="422.10001"
   x2="193"
   y1="445.79999"
   x1="185.2"
   class="st41"
   style="fill:#ffffff;stroke:#ffffff" />

		  <line
   id="line746"
   y2="423.89999"
   x2="199.10001"
   y1="448"
   x1="192.2"
   class="st41"
   style="fill:#ffffff;stroke:#ffffff" />

		  <line
   id="line748"
   y2="425.60001"
   x2="205.3"
   y1="449.89999"
   x1="199.3"
   class="st41"
   style="fill:#ffffff;stroke:#ffffff" />

		  <line
   id="line750"
   y2="427.10001"
   x2="211.60001"
   y1="451.5"
   x1="206.39999"
   class="st41"
   style="fill:#ffffff;stroke:#ffffff" />

		  <line
   id="line752"
   y2="429.29999"
   x2="224.3"
   y1="454.10001"
   x1="220.8"
   class="st41"
   style="fill:#ffffff;stroke:#ffffff" />

		  <line
   id="line754"
   y2="430.10001"
   x2="230.7"
   y1="455"
   x1="228.10001"
   class="st41"
   style="fill:#ffffff;stroke:#ffffff" />

		  <line
   id="line756"
   y2="430.70001"
   x2="237.10001"
   y1="455.60001"
   x1="235.39999"
   class="st41"
   style="fill:#ffffff;stroke:#ffffff" />

		  <line
   id="line758"
   y2="431"
   x2="243.60001"
   y1="456"
   x1="242.7"
   class="st41"
   style="fill:#ffffff;stroke:#ffffff" />

		  <line
   id="line760"
   y2="431"
   x2="256.39999"
   y1="456"
   x1="257.29999"
   class="st41"
   style="fill:#ffffff;stroke:#ffffff" />

		  <line
   id="line762"
   y2="430.70001"
   x2="262.89999"
   y1="455.60001"
   x1="264.60001"
   class="st41"
   style="fill:#ffffff;stroke:#ffffff" />

		  <line
   id="line764"
   y2="430.10001"
   x2="269.29999"
   y1="455"
   x1="271.89999"
   class="st41"
   style="fill:#ffffff;stroke:#ffffff" />

		  <line
   id="line766"
   y2="429.29999"
   x2="275.70001"
   y1="454.10001"
   x1="279.20001"
   class="st41"
   style="fill:#ffffff;stroke:#ffffff" />

		  <line
   id="line768"
   y2="427.10001"
   x2="288.39999"
   y1="451.5"
   x1="293.60001"
   class="st41"
   style="fill:#ffffff;stroke:#ffffff" />

		  <line
   id="line770"
   y2="425.60001"
   x2="294.70001"
   y1="449.89999"
   x1="300.70001"
   class="st41"
   style="fill:#ffffff;stroke:#ffffff" />

		  <line
   id="line772"
   y2="423.89999"
   x2="300.89999"
   y1="448"
   x1="307.79999"
   class="st41"
   style="fill:#ffffff;stroke:#ffffff" />

		  <line
   id="line774"
   y2="422.10001"
   x2="307"
   y1="445.79999"
   x1="314.79999"
   class="st41"
   style="fill:#ffffff;stroke:#ffffff" />

		  <line
   id="line776"
   y2="417.70001"
   x2="319.20001"
   y1="440.79999"
   x1="328.5"
   class="st41"
   style="fill:#ffffff;stroke:#ffffff" />

		  <line
   id="line778"
   y2="415.10001"
   x2="325.10001"
   y1="438"
   x1="335.29999"
   class="st41"
   style="fill:#ffffff;stroke:#ffffff" />

		  <line
   id="line780"
   y2="412.39999"
   x2="330.89999"
   y1="434.89999"
   x1="341.89999"
   class="st41"
   style="fill:#ffffff;stroke:#ffffff" />

		  <line
   id="line782"
   y2="409.5"
   x2="336.70001"
   y1="431.60001"
   x1="348.39999"
   class="st41"
   style="fill:#ffffff;stroke:#ffffff" />

		  <line
   id="line784"
   y2="403"
   x2="347.79999"
   y1="424.29999"
   x1="361.10001"
   class="st41"
   style="fill:#ffffff;stroke:#ffffff" />

		  <line
   id="line786"
   y2="399.5"
   x2="353.20001"
   y1="420.29999"
   x1="367.20001"
   class="st41"
   style="fill:#ffffff;stroke:#ffffff" />

		  <line
   id="line788"
   y2="395.79999"
   x2="358.5"
   y1="416.10001"
   x1="373.20001"
   class="st41"
   style="fill:#ffffff;stroke:#ffffff" />

		  <line
   id="line790"
   y2="392"
   x2="363.70001"
   y1="411.70001"
   x1="379"
   class="st41"
   style="fill:#ffffff;stroke:#ffffff" />

		  <line
   id="line792"
   y2="383.70001"
   x2="373.5"
   y1="402.29999"
   x1="390.20001"
   class="st41"
   style="fill:#ffffff;stroke:#ffffff" />

		  <line
   id="line794"
   y2="379.29999"
   x2="378.20001"
   y1="397.29999"
   x1="395.60001"
   class="st41"
   style="fill:#ffffff;stroke:#ffffff" />

		  <line
   id="line796"
   y2="374.70001"
   x2="382.79999"
   y1="392.10001"
   x1="400.79999"
   class="st41"
   style="fill:#ffffff;stroke:#ffffff" />

		  <line
   id="line798"
   y2="370"
   x2="387.20001"
   y1="386.70001"
   x1="405.79999"
   class="st41"
   style="fill:#ffffff;stroke:#ffffff" />

		  <line
   id="line800"
   y2="360.20001"
   x2="395.5"
   y1="375.5"
   x1="415.20001"
   class="st41"
   style="fill:#ffffff;stroke:#ffffff" />

		  <line
   id="line802"
   y2="355"
   x2="399.29999"
   y1="369.70001"
   x1="419.60001"
   class="st41"
   style="fill:#ffffff;stroke:#ffffff" />

		  <line
   id="line804"
   y2="349.70001"
   x2="403"
   y1="363.70001"
   x1="423.79999"
   class="st41"
   style="fill:#ffffff;stroke:#ffffff" />

		  <line
   id="line806"
   y2="344.29999"
   x2="406.5"
   y1="357.60001"
   x1="427.79999"
   class="st41"
   style="fill:#ffffff;stroke:#ffffff" />

		  <line
   id="line808"
   y2="333.20001"
   x2="413"
   y1="344.89999"
   x1="435.10001"
   class="st41"
   style="fill:#ffffff;stroke:#ffffff" />

		  <line
   id="line810"
   y2="327.39999"
   x2="415.89999"
   y1="338.39999"
   x1="438.39999"
   class="st41"
   style="fill:#ffffff;stroke:#ffffff" />

		  <line
   id="line812"
   y2="321.60001"
   x2="418.60001"
   y1="331.79999"
   x1="441.5"
   class="st41"
   style="fill:#ffffff;stroke:#ffffff" />

		  <line
   id="line814"
   y2="315.70001"
   x2="421.20001"
   y1="325"
   x1="444.29999"
   class="st41"
   style="fill:#ffffff;stroke:#ffffff" />

		  <line
   id="line816"
   y2="303.5"
   x2="425.60001"
   y1="311.29999"
   x1="449.29999"
   class="st41"
   style="fill:#ffffff;stroke:#ffffff" />

		  <line
   id="line818"
   y2="297.39999"
   x2="427.39999"
   y1="304.29999"
   x1="451.5"
   class="st41"
   style="fill:#ffffff;stroke:#ffffff" />

		  <line
   id="line820"
   y2="291.20001"
   x2="429.10001"
   y1="297.20001"
   x1="453.39999"
   class="st41"
   style="fill:#ffffff;stroke:#ffffff" />

		  <line
   id="line822"
   y2="284.89999"
   x2="430.60001"
   y1="290.10001"
   x1="455"
   class="st41"
   style="fill:#ffffff;stroke:#ffffff" />

		  <line
   id="line824"
   y2="272.20001"
   x2="432.79999"
   y1="275.70001"
   x1="457.60001"
   class="st41"
   style="fill:#ffffff;stroke:#ffffff" />

		  <line
   id="line826"
   y2="265.79999"
   x2="433.60001"
   y1="268.39999"
   x1="458.5"
   class="st41"
   style="fill:#ffffff;stroke:#ffffff" />

		  <line
   id="line828"
   y2="259.39999"
   x2="434.20001"
   y1="261.10001"
   x1="459.10001"
   class="st41"
   style="fill:#ffffff;stroke:#ffffff" />

		  <line
   id="line830"
   y2="252.89999"
   x2="434.5"
   y1="253.8"
   x1="459.5"
   class="st41"
   style="fill:#ffffff;stroke:#ffffff" />

		  <line
   id="line832"
   y2="240.10001"
   x2="434.5"
   y1="239.2"
   x1="459.5"
   class="st41"
   style="fill:#ffffff;stroke:#ffffff" />

		  <line
   id="line834"
   y2="233.60001"
   x2="434.20001"
   y1="231.89999"
   x1="459.10001"
   class="st41"
   style="fill:#ffffff;stroke:#ffffff" />

		  <line
   id="line836"
   y2="227.2"
   x2="433.60001"
   y1="224.60001"
   x1="458.5"
   class="st41"
   style="fill:#ffffff;stroke:#ffffff" />

		  <line
   id="line838"
   y2="220.8"
   x2="432.79999"
   y1="217.3"
   x1="457.60001"
   class="st41"
   style="fill:#ffffff;stroke:#ffffff" />

		  <line
   id="line840"
   y2="208.10001"
   x2="430.60001"
   y1="202.89999"
   x1="455"
   class="st41"
   style="fill:#ffffff;stroke:#ffffff" />

		  <line
   id="line842"
   y2="201.8"
   x2="429.10001"
   y1="195.8"
   x1="453.39999"
   class="st41"
   style="fill:#ffffff;stroke:#ffffff" />

		  <line
   id="line844"
   y2="195.60001"
   x2="427.39999"
   y1="188.7"
   x1="451.5"
   class="st41"
   style="fill:#ffffff;stroke:#ffffff" />

		  <line
   id="line846"
   y2="189.5"
   x2="425.60001"
   y1="181.7"
   x1="449.29999"
   class="st41"
   style="fill:#ffffff;stroke:#ffffff" />

		  <line
   id="line848"
   y2="177.3"
   x2="421.20001"
   y1="168"
   x1="444.29999"
   class="st41"
   style="fill:#ffffff;stroke:#ffffff" />

		  <line
   id="line850"
   y2="171.39999"
   x2="418.60001"
   y1="161.2"
   x1="441.5"
   class="st41"
   style="fill:#ffffff;stroke:#ffffff" />

		  <line
   id="line852"
   y2="165.60001"
   x2="415.89999"
   y1="154.60001"
   x1="438.39999"
   class="st41"
   style="fill:#ffffff;stroke:#ffffff" />

		  <line
   id="line854"
   y2="159.8"
   x2="413"
   y1="148.10001"
   x1="435.10001"
   class="st41"
   style="fill:#ffffff;stroke:#ffffff" />

		  <line
   id="line856"
   y2="148.7"
   x2="406.5"
   y1="135.39999"
   x1="427.79999"
   class="st41"
   style="fill:#ffffff;stroke:#ffffff" />

		  <line
   id="line858"
   y2="143.3"
   x2="403"
   y1="129.3"
   x1="423.79999"
   class="st41"
   style="fill:#ffffff;stroke:#ffffff" />

		  <line
   id="line860"
   y2="138"
   x2="399.29999"
   y1="123.3"
   x1="419.60001"
   class="st41"
   style="fill:#ffffff;stroke:#ffffff" />

		  <line
   id="line862"
   y2="132.8"
   x2="395.5"
   y1="117.5"
   x1="415.20001"
   class="st41"
   style="fill:#ffffff;stroke:#ffffff" />

		  <line
   id="line864"
   y2="123"
   x2="387.20001"
   y1="106.3"
   x1="405.79999"
   class="st41"
   style="fill:#ffffff;stroke:#ffffff" />

		  <line
   id="line866"
   y2="118.3"
   x2="382.79999"
   y1="100.9"
   x1="400.79999"
   class="st41"
   style="fill:#ffffff;stroke:#ffffff" />

		  <line
   id="line868"
   y2="113.7"
   x2="378.20001"
   y1="95.699997"
   x1="395.60001"
   class="st41"
   style="fill:#ffffff;stroke:#ffffff" />

		  <line
   id="line870"
   y2="109.3"
   x2="373.5"
   y1="90.699997"
   x1="390.20001"
   class="st41"
   style="fill:#ffffff;stroke:#ffffff" />

		  <line
   id="line872"
   y2="101"
   x2="363.70001"
   y1="81.300003"
   x1="379"
   class="st41"
   style="fill:#ffffff;stroke:#ffffff" />

		  <line
   id="line874"
   y2="97.199997"
   x2="358.5"
   y1="76.900002"
   x1="373.20001"
   class="st41"
   style="fill:#ffffff;stroke:#ffffff" />

		  <line
   id="line876"
   y2="93.5"
   x2="353.20001"
   y1="72.699997"
   x1="367.20001"
   class="st41"
   style="fill:#ffffff;stroke:#ffffff" />

		  <line
   id="line878"
   y2="90"
   x2="347.79999"
   y1="68.699997"
   x1="361.10001"
   class="st41"
   style="fill:#ffffff;stroke:#ffffff" />

		  <line
   id="line880"
   y2="83.5"
   x2="336.70001"
   y1="61.400002"
   x1="348.39999"
   class="st41"
   style="fill:#ffffff;stroke:#ffffff" />

		  <line
   id="line882"
   y2="80.599998"
   x2="330.89999"
   y1="58.099998"
   x1="341.89999"
   class="st41"
   style="fill:#ffffff;stroke:#ffffff" />

		  <line
   id="line884"
   y2="77.900002"
   x2="325.10001"
   y1="55"
   x1="335.29999"
   class="st41"
   style="fill:#ffffff;stroke:#ffffff" />

		  <line
   id="line886"
   y2="75.300003"
   x2="319.20001"
   y1="52.200001"
   x1="328.5"
   class="st41"
   style="fill:#ffffff;stroke:#ffffff" />

		  <line
   id="line888"
   y2="70.900002"
   x2="307"
   y1="47.200001"
   x1="314.79999"
   class="st41"
   style="fill:#ffffff;stroke:#ffffff" />

		  <line
   id="line890"
   y2="69.099998"
   x2="300.89999"
   y1="45"
   x1="307.79999"
   class="st41"
   style="fill:#ffffff;stroke:#ffffff" />

		  <line
   id="line892"
   y2="67.400002"
   x2="294.70001"
   y1="43.099998"
   x1="300.70001"
   class="st41"
   style="fill:#ffffff;stroke:#ffffff" />

		  <line
   id="line894"
   y2="65.900002"
   x2="288.39999"
   y1="41.5"
   x1="293.60001"
   class="st41"
   style="fill:#ffffff;stroke:#ffffff" />

		  <line
   id="line896"
   y2="63.700001"
   x2="275.70001"
   y1="38.900002"
   x1="279.20001"
   class="st41"
   style="fill:#ffffff;stroke:#ffffff" />

		  <line
   id="line898"
   y2="62.900002"
   x2="269.29999"
   y1="38"
   x1="271.89999"
   class="st41"
   style="fill:#ffffff;stroke:#ffffff" />

		  <line
   id="line900"
   y2="62.299999"
   x2="262.89999"
   y1="37.400002"
   x1="264.60001"
   class="st41"
   style="fill:#ffffff;stroke:#ffffff" />

		  <line
   id="line902"
   y2="62"
   x2="256.39999"
   y1="37"
   x1="257.29999"
   class="st41"
   style="fill:#ffffff;stroke:#ffffff" />

    </g>

	  <line
   id="line905"
   y2="286.49936"
   x2="249.99965"
   y1="206.49936"
   x1="249.99965"
   class="st42"
   style="fill:#ffffff;stroke:#ffffff" />

	  <line
   id="line907"
   y2="246.49936"
   x2="289.99966"
   y1="246.49936"
   x1="209.99965"
   class="st42"
   style="fill:#ffffff;stroke:#ffffff" />

  </g>

			<g
   id="text"
   style="fill:#ffffff">
    <text
   id="txtCardinalRight"
   class="st43 st44"
   transform="rotate(90)"
   style="fill:#ffffff"
   x="233.35092"
   y="-381.1846">W</text>

				<text
   id="text912"
   class="st43 st44"
   style="fill:#ffffff"
   x="239.99184"
   y="415.1405">S</text>

				<text
   id="text914"
   class="st43 st44"
   style="fill:#ffffff"
   x="239.51137"
   y="109.3156">N</text>

				<g
   id="Degrees"
   style="fill:#ffffff">
      <text
   id="text916"
   class="st43 st45"
   transform="translate(246.6631,15.2502)"
   style="fill:#ffffff">0</text>

					<text
   id="text918"
   class="st43 st45"
   transform="matrix(0.9848,-0.1736,0.1736,0.9848,203.2713,19.9221)"
   style="fill:#ffffff">10</text>

					<text
   id="text920"
   class="st43 st45"
   transform="rotate(-19.998771,171.58641,-451.14017)"
   style="fill:#ffffff">20</text>

					<text
   id="text922"
   class="st43 st45"
   transform="matrix(0.866,-0.5,0.5,0.866,128.5952,49.5686)"
   style="fill:#ffffff">30</text>

					<text
   id="text924"
   class="st43 st45"
   transform="matrix(0.766,-0.6428,0.6428,0.766,94.9662,74.7137)"
   style="fill:#ffffff"> 40</text>

					<text
   id="text926"
   class="st43 st45"
   transform="matrix(0.6428,-0.766,0.766,0.6428,68.5621,102.9684)"
   style="fill:#ffffff">50</text>

					<text
   id="text928"
   class="st43 st45"
   transform="matrix(0.5,-0.866,0.866,0.5,46.3945,136.6556)"
   style="fill:#ffffff">60</text>

					<text
   id="text930"
   class="st43 st45"
   transform="rotate(-70.001229,139.22465,65.12325)"
   style="fill:#ffffff">70</text>

					<text
   id="text932"
   class="st43 st45"
   transform="matrix(0.1736,-0.9848,0.9848,0.1736,21.1045,212.918)"
   style="fill:#ffffff">80</text>

					<text
   id="text934"
   class="st43 st45"
   transform="rotate(-90,135.96295,117.21225)"
   style="fill:#ffffff">90</text>

					<text
   id="text936"
   class="st43 st45"
   transform="matrix(-0.1736,-0.9848,0.9848,-0.1736,24.0023,296.516)"
   style="fill:#ffffff">100</text>

					<text
   id="text938"
   class="st43 st45"
   transform="rotate(-109.99877,135.34787,154.85351)"
   style="fill:#ffffff">110</text>

					<text
   id="text940"
   class="st43 st45"
   transform="matrix(-0.5,-0.866,0.866,-0.5,54.738,370.7942)"
   style="fill:#ffffff">120</text>

					<text
   id="text942"
   class="st43 st45"
   transform="matrix(-0.6428,-0.766,0.766,-0.6428,79.2876,402.8128)"
   style="fill:#ffffff">130</text>

					<text
   id="text944"
   class="st43 st45"
   transform="matrix(-0.766,-0.6428,0.6428,-0.766,109.0246,430.0818)"
   style="fill:#ffffff">140</text>

					<text
   id="text946"
   class="st43 st45"
   transform="matrix(-0.866,-0.5,0.5,-0.866,143.0454,451.7725)"
   style="fill:#ffffff">150</text>

					<text
   id="text948"
   class="st43 st45"
   transform="rotate(-160.00123,131.34736,217.71717)"
   style="fill:#ffffff">160</text>

					<text
   id="text950"
   class="st43 st45"
   transform="matrix(-0.9848,-0.1736,0.1736,-0.9848,219.7032,475.9743)"
   style="fill:#ffffff">170</text>

					<text
   id="text952"
   class="st43 st45"
   transform="rotate(180,130.0056,238.87425)"
   style="fill:#ffffff">180</text>

					<text
   id="text954"
   class="st43 st45"
   transform="matrix(-0.9848,0.1736,-0.1736,-0.9848,300.0161,472.4969)"
   style="fill:#ffffff">190</text>

					<text
   id="text956"
   class="st43 st45"
   transform="rotate(160.00123,128.66387,260.0307)"
   style="fill:#ffffff">200</text>

					<text
   id="text958"
   class="st43 st45"
   transform="matrix(-0.866,0.5,-0.5,-0.866,374.2942,441.761)"
   style="fill:#ffffff">210</text>

					<text
   id="text960"
   class="st43 st45"
   transform="matrix(-0.766,0.6428,-0.6428,-0.766,406.3128,417.211)"
   style="fill:#ffffff">220</text>

					<text
   id="text962"
   class="st43 st45"
   transform="matrix(-0.6428,0.766,-0.766,-0.6428,433.5818,387.4739)"
   style="fill:#ffffff">230</text>

					<text
   id="text964"
   class="st43 st45"
   transform="matrix(-0.5,0.866,-0.866,-0.5,455.2725,353.4536)"
   style="fill:#ffffff">240</text>

					<text
   id="text966"
   class="st43 st45"
   transform="rotate(109.99877,124.66379,322.89878)"
   style="fill:#ffffff">250</text>

					<text
   id="text968"
   class="st43 st45"
   transform="matrix(-0.1736,0.9848,-0.9848,-0.1736,479.4743,276.7961)"
   style="fill:#ffffff">260</text>

					<text
   id="text970"
   class="st43 st45"
   transform="rotate(90,122.3802,358.8684)"
   style="fill:#ffffff">270</text>

					<text
   id="text972"
   class="st43 st45"
   transform="matrix(0.1736,0.9848,-0.9848,0.1736,475.997,196.4843)"
   style="fill:#ffffff">280</text>

					<text
   id="text974"
   class="st43 st45"
   transform="rotate(70.001229,119.11776,410.23626)"
   style="fill:#ffffff">290</text>

					<text
   id="text976"
   class="st43 st45"
   transform="matrix(0.5,0.866,-0.866,0.5,445.261,122.2053)"
   style="fill:#ffffff">300</text>

					<text
   id="text978"
   class="st43 st45"
   transform="matrix(0.6428,0.766,-0.766,0.6428,420.711,90.1872)"
   style="fill:#ffffff">310</text>

					<text
   id="text980"
   class="st43 st45"
   transform="matrix(0.766,0.6428,-0.6428,0.766,390.9739,62.9179)"
   style="fill:#ffffff">320</text>

					<text
   id="text982"
   class="st43 st45"
   transform="matrix(0.866,0.5,-0.5,0.866,356.9536,41.227)"
   style="fill:#ffffff">330</text>

					<text
   id="text984"
   class="st43 st45"
   transform="rotate(19.998771,86.752705,919.4515)"
   style="fill:#ffffff">340</text>

					<text
   id="text986"
   class="st43 st45"
   transform="matrix(0.9848,0.1736,-0.1736,0.9848,280.2961,17.0263)"
   style="fill:#ffffff">350</text>

    </g>

				<g
   id="English"
   style="display:inline;fill:#ffffff">
      <text
   id="txtCardinalLeft"
   class="st43 st44"
   transform="rotate(90)"
   style="fill:#ffffff"
   x="237.54623"
   y="-82.359398">E</text>

    </g>

  </g>

</g>
</g><path
     sodipodi:type="star"
     style="fill:#ff0000"
     id="path753"
     inkscape:flatsided="true"
     sodipodi:sides="3"
     sodipodi:cx="462.20999"
     sodipodi:cy="280.68182"
     sodipodi:r1="37.103096"
     sodipodi:r2="18.551546"
     sodipodi:arg1="0.52359878"
     sodipodi:arg2="1.5707963"
     inkscape:rounded="0"
     inkscape:randomized="0"
     d="m 494.34222,299.23337 -64.26445,0 32.13222,-55.65464 z"
     inkscape:transform-center-y="-7.5055535"
     transform="matrix(0.80915657,0,0,0.80915657,154.75032,82)"
     inkscape:label="arrow"
     inkscape:transform-center-x="2.4317324e-06">
   
   </path></g><g
   id="g6"
   inkscape:label="mask"
   style="display:inline"><rect
     id="rect695"
     style="display:inline;stroke-width:0.252646"
     height="1079.4099"
     width="122.62051"
     x="-1917.7258"
     y="-10.954389"
     transform="rotate(-90)"
     inkscape:label="Compass Mask Bottom" /><polygon
     id="polygon424"
     points="1661.9,267 1427.8,267.8 1193.6,268.3 959.5,268.5 725.4,268.3 491.3,267.8 257.1,267 140.1,266.3 81.5,266 23,265.5 81.5,265 140.1,264.7 257.1,264 491.3,263.2 725.4,262.7 959.5,262.5 1193.6,262.7 1427.8,263.2 1661.9,264 1778.9,264.7 1837.5,265 1896,265.5 1837.5,266 1778.9,266.3 "
     class="st8"
     transform="matrix(0.55205553,0,0,0.55205553,-0.94671403,1649.0854)"
     inkscape:label="dividerBottom" /><rect
     id="rect697"
     style="display:inline;stroke-width:0.304882"
     height="1078.9398"
     width="178.64632"
     x="-182.23419"
     y="-10.719342"
     transform="rotate(-90)"
     inkscape:label="Compass Mask Top" /><polygon
     id="divider"
     points="140.1,264.7 257.1,264 491.3,263.2 725.4,262.7 959.5,262.5 1193.6,262.7 1427.8,263.2 1661.9,264 1778.9,264.7 1837.5,265 1896,265.5 1837.5,266 1778.9,266.3 1661.9,267 1427.8,267.8 1193.6,268.3 959.5,268.5 725.4,268.3 491.3,267.8 257.1,267 140.1,266.3 81.5,266 23,265.5 81.5,265 "
     class="st8"
     transform="matrix(0.55205553,0,0,0.55205553,-0.94671403,33.08542)"
     inkscape:label="dividerTop" /></g>
</g>


		<g
   id="gearDisplay"
   transform="matrix(0.44639918,0,0,0.71173927,223.14487,-8.6665116)"
   inkscape:label="gear group">
		<rect
   id="gearBox"
   height="176.7"
   width="191.3"
   class="st13"
   y="58.477783"
   x="1678.7595"
   rx="26.124174"
   ry="16.384947" />
<text
   id="gear"
   class="st34 st15 st16"
   transform="matrix(1.8013688,0,0,1.0560938,68.308114,-21.707102)"
   style="font-style:normal;font-variant:normal;font-weight:normal;font-stretch:normal;font-size:165.333px;font-family:'Agency FB';-inkscape-font-specification:'Agency FB, Normal';font-variant-ligatures:normal;font-variant-caps:normal;font-variant-numeric:normal;font-variant-east-asian:normal;text-align:center;text-anchor:middle;fill:#fcc914;stroke-width:1.03431"
   x="947.11389"
   y="222.75371">-</text>

</g>


		



		<g
   id="g8685"
   inkscape:label="values group">

<g
   id="g5"
   inkscape:label="customData"
   transform="translate(-897.87149,1612.433)"><text
     id="dataValue"
     class="st0 st17 st23"
     x="1085.3535"
     y="286.28574"
     style="font-style:normal;font-variant:normal;font-weight:normal;font-stretch:normal;font-size:96px;font-family:'Agency FB';-inkscape-font-specification:'Agency FB, Normal';font-variant-ligatures:normal;font-variant-caps:normal;font-variant-numeric:normal;font-variant-east-asian:normal;text-align:start;text-anchor:start;fill:#ffffff">---</text><text
     id="dataLabel"
     class="st0 st17 st23"
     x="1081.0592"
     y="286.28574"
     style="font-style:normal;font-variant:normal;font-weight:normal;font-stretch:normal;font-size:69.3333px;font-family:'Agency FB';-inkscape-font-specification:'Agency FB, Normal';font-variant-ligatures:normal;font-variant-caps:normal;font-variant-numeric:normal;font-variant-east-asian:normal;text-align:end;text-anchor:end;fill:#ffffff">Range:</text></g><g
   id="g4"
   inkscape:label="speedo"
   transform="translate(-861.103,1622.5751)"><text
     id="speed"
     class="st0 st20 st21"
     style="font-style:normal;font-variant:normal;font-weight:normal;font-stretch:normal;font-size:192px;font-family:'Agency FB';-inkscape-font-specification:'Agency FB, Normal';font-variant-ligatures:normal;font-variant-caps:normal;font-variant-numeric:normal;font-variant-east-asian:normal;text-align:end;text-anchor:end;fill:#ffffff"
     x="1100.166"
     y="-1463.8563">---</text><text
     id="speedUnit"
     class="st0 st20 st22"
     x="1093.6218"
     y="-1463.8563"
     style="font-size:69.3333px">MPH</text></g><text
   y="1898.7188"
   x="1039.5162"
   id="clock"
   class="st0 st17 st18"
   style="font-style:normal;font-variant:normal;font-weight:normal;font-stretch:normal;font-size:96px;font-family:'Agency FB';-inkscape-font-specification:'Agency FB, Normal';font-variant-ligatures:normal;font-variant-caps:normal;font-variant-numeric:normal;font-variant-east-asian:normal;text-align:end;text-anchor:end;fill:#ffffff">00:00</text>
</g>


		<!-- Status Icons -->

		


		<g
   id="g8673"
   inkscape:label="icon group"
   transform="translate(74.01097,-26.813413)"
   style="display:inline">
<path
   id="iconBox"
   d="m 887.91437,76.1 v 93.1 c 0,4.5 -4.24334,8.1 -9.54752,8.1 H 403.11236 c -5.30418,0 -9.54753,-3.6 -9.54753,-8.1 V 76.1 c 0,-4.5 4.24335,-8.1 9.54753,-8.1 h 475.25449 c 5.18631,0 9.54752,3.6 9.54752,8.1 z"
   class="st29"
   style="stroke-width:1.08568" />
<g
   id="icons"
   transform="translate(-73.12014,-65.928)">
				


			<g
   transform="translate(-665.57966,-850.45044)"
   id="iconBT"
   style="display:none">
	<path
   id="iconBTppath"
   d="m 1587.2107,1029.6316 -5.961,5.961 -0.042,-11.9497 6.0027,5.9887 m -6.0027,30.5415 5.9888,-5.9888 -5.961,-5.961 z m 23.1492,-18.2721 c 0,28.5683 -9.9905,35.099 -25.7198,35.099 -15.7292,0 -27.6373,-6.5307 -27.6373,-35.099 0,-28.5683 11.5885,-36.0439 27.3178,-36.0439 15.7292,0 26.0393,7.4895 26.0393,36.0439 z m -22.0237,0 11.0327,-12.311 -17.3827,-18.6612 v 24.5805 l -10.2548,-10.2546 -3.7517,3.7378 12.8808,12.9224 -12.8808,12.9224 3.7378,3.7378 10.2546,-10.2546 0.3196,23.6217 17.7023,-17.7162 z"
   class="st0" />



	</g>
<g
   transform="translate(-897.78024,-706.02189)"
   id="iconTrip"
   style="display:none">
	<path
   id="path2349"
   d="m 1757.7,918 c -6.4,-16 -12.8,-32 -19.2,-48 -0.7,-1.8 -1.8,-2.5 -3.7,-2.5 -4.4,0 -8.9,0 -13.3,0 -0.3,0 -0.6,0 -1.2,0 1,0.6 1.2,1.4 1.2,2.2 0.2,2.6 0.4,5.2 0.6,7.9 0.1,1.2 -0.4,1.7 -1.6,1.7 -2.4,0 -4.8,0 -7.1,0 -1.2,0 -1.7,-0.5 -1.6,-1.7 0.2,-2.6 0.4,-5.3 0.6,-7.9 0.1,-0.8 0.2,-1.5 1.2,-2.1 -5.1,0 -9.9,0 -14.6,0 -1.7,0 -2.9,0.8 -3.5,2.4 -6.4,16.1 -12.8,32.1 -19.2,48.2 -0.8,1.9 -1.2,4 -0.9,6.1 0.2,1.5 0.9,2.1 2.4,2.1 10.2,0 20.3,0 30.5,0 0.3,0 0.5,0 1.1,0 -1,-0.5 -1,-1.2 -1,-2 0.3,-3.7 0.6,-7.4 0.9,-11.1 0.1,-1 0.7,-1.6 1.8,-1.6 4,0 8.1,0 12.1,0 1.1,0 1.7,0.5 1.8,1.7 0.3,3.7 0.6,7.3 0.9,11 0.1,0.8 0.1,1.5 -0.9,2.1 0.5,0 0.8,0 1,0 10.2,0 20.3,0 30.5,0 1.5,0 2.2,-0.5 2.4,-2.1 0.1,-2.4 -0.4,-4.4 -1.2,-6.4 z m -35.4,-15.2 c -1.8,0 -3.6,0 -5.4,0 -1.8,0 -3.6,0 -5.4,0 -1.2,0 -1.7,-0.5 -1.6,-1.6 0.4,-4.8 0.7,-9.5 1.1,-14.3 0.1,-1.2 0.6,-1.7 1.8,-1.7 2.7,0 5.4,0 8,0 1.2,0 1.7,0.5 1.8,1.6 0.3,3.4 0.5,6.7 0.8,10.1 0.1,1.4 0.2,2.8 0.3,4.3 0.2,1.1 -0.2,1.6 -1.4,1.6 z"
   class="st0" />


</g>


			


			


			<g
   transform="translate(-1000.8675,-599.77189)"
   id="iconVideo"
   style="display:none">
	<path
   id="path2365"
   d="m 1747.9,771.4 c -3.7,0 -7.4,0 -11,0 -0.5,0 -0.9,-0.1 -1.2,-0.5 -2.1,-2.2 -4.3,-4.4 -6.4,-6.5 -1.2,-1.2 -2.6,-2 -4.3,-2 -5,0 -10,0 -15,0 -1.6,0 -3,0.6 -4.1,1.8 -2.2,2.2 -4.4,4.4 -6.6,6.7 -0.4,0.4 -0.8,0.6 -1.4,0.6 -3.7,0 -7.4,0 -11,0 -3.8,0 -6.3,2.4 -6.3,6.3 0,11.7 0,23.3 0,35 0,3.8 2.5,6.3 6.3,6.3 10.1,0 20.3,0 30.4,0 10.2,0 20.4,0 30.6,0 3.6,0 6.2,-2.6 6.2,-6.2 0,-11.7 0,-23.5 0,-35.2 -0.1,-3.8 -2.6,-6.3 -6.2,-6.3 z m -30.6,38.6 c -9,0 -16.3,-7.3 -16.3,-16.3 0,-9 7.3,-16.4 16.2,-16.4 9,0 16.4,7.3 16.4,16.4 0,8.9 -7.3,16.2 -16.3,16.3 z m 29.7,-29.2 c -1.4,0 -2.5,-1.1 -2.5,-2.5 0,-1.4 1.2,-2.6 2.5,-2.5 1.3,0 2.4,1.2 2.4,2.5 0,1.4 -1.1,2.5 -2.4,2.5 z"
   class="st0" />


				<path
   id="path2367"
   d="m 1717.3,781.3 c 6.8,0 12.3,5.5 12.3,12.4 0,6.8 -5.6,12.4 -12.4,12.4 -6.8,0 -12.3,-5.6 -12.3,-12.4 0.1,-6.9 5.6,-12.5 12.4,-12.4 z"
   class="st0" />

	</g>
<g
   transform="translate(-1101.1552,-492.07685)"
   id="iconFault"
   style="display:none">
	<path
   id="path2357"
   d="m 1717.7,716 c -11.3,0 -22.5,0 -33.8,0 -0.3,0 -0.7,0 -1,-0.1 -0.9,-0.2 -1.4,-0.8 -1.5,-1.7 0,-0.6 0.1,-1.1 0.4,-1.7 0.8,-1.6 1.7,-3.1 2.6,-4.6 9,-15.8 18,-31.6 27,-47.5 1.8,-3.2 3.6,-6.3 5.4,-9.5 0.3,-0.5 0.8,-0.8 1.4,-0.8 0.6,0 1,0.2 1.3,0.8 4.9,8.7 9.7,17.5 14.6,26.2 6.1,11 12.2,21.9 18.4,32.9 0.4,0.6 0.7,1.3 1.1,1.9 0.3,0.6 0.5,1.2 0.5,1.8 0,1.2 -0.9,2.2 -2.2,2.2 -7,0 -14,0 -21,0 -4.4,0.1 -8.8,0.1 -13.2,0.1 z"
   class="st31" />

				<path
   id="path2359"
   d="m 1723.2,674.2 c -0.1,1.5 -0.2,3.2 -0.4,4.9 -0.1,1.2 -0.2,2.3 -0.3,3.5 -0.2,2.1 -0.3,4.1 -0.5,6.2 -0.1,1.2 -0.2,2.3 -0.3,3.5 -0.1,0.8 -0.1,1.6 -0.2,2.4 -0.1,1.5 -1.3,2.9 -2.9,3.2 -2,0.4 -3.9,-0.8 -4.3,-2.8 -0.1,-0.3 -0.1,-0.6 -0.1,-0.9 -0.2,-2.3 -0.4,-4.7 -0.6,-7 -0.2,-2.6 -0.5,-5.2 -0.7,-7.8 -0.1,-1.7 -0.3,-3.4 -0.4,-5.1 0,0 0,-0.1 0,-0.1 -0.2,-0.9 0.2,-1.7 0.8,-2.3 1,-0.9 2.2,-1.5 3.5,-1.7 1.5,-0.3 2.9,0.1 4.2,0.9 0.5,0.3 0.9,0.6 1.2,1 0.8,0.5 1,1 1,2.1 z"
   class="st32" />


				<path
   id="path2361"
   d="m 1718.1,710.8 c -2.8,0 -5.1,-2.3 -5.1,-5.1 0,-2.8 2.3,-5.1 5.2,-5.1 2.8,0 5.1,2.3 5.1,5.1 -0.1,2.8 -2.4,5.1 -5.2,5.1 z"
   class="st32" />


</g>
<g
   transform="translate(-1200.4675,-388.27189)"
   id="iconFuel"
   style="display:none">
	<path
   id="path2353"
   d="m 1753.2,561.7 c -2.9,-2.8 -5.7,-5.7 -8.6,-8.5 -0.9,-0.9 -2,-0.9 -2.9,-0.1 -1,0.9 -1.1,2 -0.2,3 0.7,0.8 1.5,1.6 2.3,2.3 0.6,0.6 0.8,1.1 0.6,2 -1.1,3.8 0.5,7.4 4.1,9.2 1,0.5 1.3,1.1 1.3,2.2 0,8.4 0,16.8 0,25.2 0,0.6 0,1.2 -0.2,1.8 -0.4,1.5 -1.5,2.2 -3,2.1 -1.5,-0.1 -2.4,-1 -2.6,-2.5 -0.1,-0.7 0,-1.3 0,-2 -0.1,-4.6 -2.6,-7.8 -7.2,-8.6 -1.4,-0.2 -1.3,-0.9 -1.3,-1.8 0,-10.3 0,-20.6 0,-31 0,-6.2 -3.8,-10 -10,-10 -7.1,0 -14.1,0 -21.2,0 -1,0 -1.9,0 -2.9,0.2 -4.6,1.2 -7.2,4.8 -7.2,9.9 0,17.2 0,34.5 0,51.7 0,1.1 -0.2,1.7 -1.4,1.9 -1.7,0.3 -2.7,1.5 -3.3,3 -0.4,1.1 -0.5,1.8 1.2,1.8 8.1,-0.1 16.3,0 24.4,0 8.1,0 16.2,0 24.3,0 1.8,0 2,-0.2 1.3,-1.9 -0.8,-1.8 -2.2,-2.9 -4.1,-3 -1,-0.1 -1.3,-0.4 -1.2,-1.4 0,-4.6 0.1,-9.1 0,-13.7 0,-1.7 0.7,-1.5 1.7,-1 2.1,1 2.4,2.9 2.4,5 0,4.4 3,7.6 7.1,7.7 4.2,0 7.3,-3.2 7.3,-7.7 0,-11.2 0,-22.5 0,-33.7 0.1,-0.8 -0.1,-1.5 -0.7,-2.1 z m -26.3,9.7 c -4,-0.1 -8,0 -11.9,0 -4,0 -8.1,0 -12.1,0 -1,0 -1.3,-0.3 -1.3,-1.3 0,-5 0,-10.1 0,-15.1 0,-2 0.7,-2.7 2.7,-2.7 7.1,0 14.2,0 21.3,0 1.8,0 2.6,0.8 2.6,2.6 0,5 0,10.1 0,15.1 0.1,1.1 -0.1,1.4 -1.3,1.4 z"
   class="st28" />


</g>

	</g>
</g>
	</g>

</svg>
