<?xml version="1.0" encoding="UTF-8" standalone="no"?>
<svg
    xmlns:dc="http://purl.org/dc/elements/1.1/"
    xmlns:cc="http://creativecommons.org/ns#"
    xmlns:svg="http://www.w3.org/2000/svg"
    xmlns="http://www.w3.org/2000/svg"
    xml:space="preserve"
    style="enable-background:new 0 0 1920 1080;"
    viewBox="0 0 1920 1080"
    height="auto"
    width="auto"
    y="0px"
    x="0px"
    id="sport-dashboard"
    version="1.1">

    <metadata
        id="metadata2490">
</metadata>
    <defs
        id="defs2488" />

    <style
        id="style833"
        type="text/css">
    .st0{fill:#FFFFFF;}
    .st1{fill:#E6E6E6;}
    .st2{font-family:'Agency FB';}
    .st3{font-size:57.9964px;}
    .st4{font-size:58px;}
    .st5{font-family:'Agency FB';}
    .st6{font-size:70.086px;}
    .st7{fill:none;stroke:#FFFFFF;stroke-width:3;stroke-miterlimit:10;}
    .st8{fill:#00FFFF;}
    .st9{font-family:'Agency FB';}
    .st10{font-size:51.8355px;}
    .st11{fill:none;stroke:#00FFFF;stroke-width:3;stroke-miterlimit:10;}
    .st12{font-size:39.0412px;}
    .st13{opacity:0.42;fill:#999999;stroke:#F2F2F2;stroke-width:3;stroke-miterlimit:10;}
    .st14{fill:#03AE1E}
    .st15{font-family:'Agency FB';}
    .st16{font-size:208.6746px;}
    .st17{font-family:'Agency FB';}
    .st18{font-size:78.4849px;}
    .st19{font-size:45.758px;}
    .st20{font-family:'Agency FB';}
    .st21{font-size:125.7355px;}
    .st22{font-size:81.3368px;}
    .st23{font-size:76.2271px;}
    .st24{font-size:63.7281px;}
    .st25{fill:none;stroke:#FFFFFF;stroke-width:9;stroke-miterlimit:10;}
    .st26{fill:none;stroke:#FFFFFF;stroke-width:9;stroke-linecap:round;stroke-miterlimit:10;}
    .st27{fill:#08F6FB;}
    .st28{fill:#FF0000;}
    .st29{opacity:0.32;fill:#FFFFFF;}
    .st30{fill:#8F7676;}
    .st31{fill:none;stroke:#FFD42A;stroke-width:5;stroke-miterlimit:10;}
    .st32{fill:#FFD42A;}
    .st33{fill:none;stroke:#FF0000;stroke-width:9;stroke-linecap:round;stroke-miterlimit:10;}
    .st34{fill:#FCC914;}
</style>

    <g id="dashboard">

    <rect
        id="background"
        style="display:none"
        height="1080"
        width="1920" />

        <g
            id="gearDisplay">
        <rect
            id="gearBox"
            height="176.7"
            width="191.3"
            class="st13"
            y="51.8"
            x="1665.8" />
</g>

        <g
            id="values">
        <text id="gear"
            class="st34 st15 st16"
            transform="matrix(1.0698,0,0,1,1715,220)">-</text>

            <text
                id="clock"
                class="st0 st17 st18"
                transform="matrix(1 0 0 1 1651.6143 1068.2803)">--:--</text>

            <text
                id="speed"
                class="st0 st20 st21"
                transform="matrix(1 0 0 1 91.2725 194.7485)">---</text>

            <text
                id="dataValue"
                class="st0 st17 st23"
                transform="matrix(1 0 0 1 1130.8184 201.6294)">---</text>

            <text
                id="angle"
                class="st0 st5 st6"
                transform="matrix(1.0684 0 0 1 929.1934 917.2803)">00</text>

            <text
                id="angleMaxL"
                class="st8 st9 st10"
                transform="matrix(1.0684,0,0,1,810.0698,986.5488)">00</text>

            <text
                id="angleMaxR"
                class="st8 st9 st10"
                transform="matrix(1.0684,0,0,1,1060.335,986.5488)">00</text>
    </g>
        <g
            id="labels">
        <text
            id="dataLabel"
            class="st0 st17 st23"
            transform="matrix(1 0 0 1 887.1519 201.6294)">TRIP1</text>
            <text
                id="dataUnit"
                class="st0 st17 st24"
                transform="matrix(1 0 0 1 1376.9141 201.6294)">mi</text>
            <text
                id="speedUnit"
                class="st0 st20 st22"
                transform="matrix(1 0 0 1 397.3823 194.7485)">MPH</text>
    </g>
        <!-- Status Icons -->
    <path
        id="iconBox"
        d="M1762.9,947.1h-93.1c-4.5,0-8.1-3.6-8.1-8.1V535.8c0-4.5,3.6-8.1,8.1-8.1h93.1c4.5,0,8.1,3.6,8.1,8.1V939  C1771,943.4,1767.4,947.1,1762.9,947.1z"
        class="st29" />

            <g
                id="icons">
                <g
                    id="iconTrip"
                    style="display:none">
    <path
        id="path2349"
        d="m 1757.7,918 c -6.4,-16 -12.8,-32 -19.2,-48 -0.7,-1.8 -1.8,-2.5 -3.7,-2.5 -4.4,0 -8.9,0 -13.3,0 -0.3,0 -0.6,0 -1.2,0 1,0.6 1.2,1.4 1.2,2.2 0.2,2.6 0.4,5.2 0.6,7.9 0.1,1.2 -0.4,1.7 -1.6,1.7 -2.4,0 -4.8,0 -7.1,0 -1.2,0 -1.7,-0.5 -1.6,-1.7 0.2,-2.6 0.4,-5.3 0.6,-7.9 0.1,-0.8 0.2,-1.5 1.2,-2.1 -5.1,0 -9.9,0 -14.6,0 -1.7,0 -2.9,0.8 -3.5,2.4 -6.4,16.1 -12.8,32.1 -19.2,48.2 -0.8,1.9 -1.2,4 -0.9,6.1 0.2,1.5 0.9,2.1 2.4,2.1 10.2,0 20.3,0 30.5,0 0.3,0 0.5,0 1.1,0 -1,-0.5 -1,-1.2 -1,-2 0.3,-3.7 0.6,-7.4 0.9,-11.1 0.1,-1 0.7,-1.6 1.8,-1.6 4,0 8.1,0 12.1,0 1.1,0 1.7,0.5 1.8,1.7 0.3,3.7 0.6,7.3 0.9,11 0.1,0.8 0.1,1.5 -0.9,2.1 0.5,0 0.8,0 1,0 10.2,0 20.3,0 30.5,0 1.5,0 2.2,-0.5 2.4,-2.1 0.1,-2.4 -0.4,-4.4 -1.2,-6.4 z m -35.4,-15.2 c -1.8,0 -3.6,0 -5.4,0 -1.8,0 -3.6,0 -5.4,0 -1.2,0 -1.7,-0.5 -1.6,-1.6 0.4,-4.8 0.7,-9.5 1.1,-14.3 0.1,-1.2 0.6,-1.7 1.8,-1.7 2.7,0 5.4,0 8,0 1.2,0 1.7,0.5 1.8,1.6 0.3,3.4 0.5,6.7 0.8,10.1 0.1,1.4 0.2,2.8 0.3,4.3 0.2,1.1 -0.2,1.6 -1.4,1.6 z"
        class="st0" />

</g>
                <g
                    id="iconBT"
                    style="display:none">
    <path
        id="iconBTppath"
        d="m 1587.2107,1029.6316 -5.961,5.961 -0.042,-11.9497 6.0027,5.9887 m -6.0027,30.5415 5.9888,-5.9888 -5.961,-5.961 z m 23.1492,-18.2721 c 0,28.5683 -9.9905,35.099 -25.7198,35.099 -15.7292,0 -27.6373,-6.5307 -27.6373,-35.099 0,-28.5683 11.5885,-36.0439 27.3178,-36.0439 15.7292,0 26.0393,7.4895 26.0393,36.0439 z m -22.0237,0 11.0327,-12.311 -17.3827,-18.6612 v 24.5805 l -10.2548,-10.2546 -3.7517,3.7378 12.8808,12.9224 -12.8808,12.9224 3.7378,3.7378 10.2546,-10.2546 0.3196,23.6217 17.7023,-17.7162 z"
        class="st0" />
    </g>
                <g
                    id="iconFuel"
                    style="display:none">
    <path
        id="path2353"
        d="m 1753.2,561.7 c -2.9,-2.8 -5.7,-5.7 -8.6,-8.5 -0.9,-0.9 -2,-0.9 -2.9,-0.1 -1,0.9 -1.1,2 -0.2,3 0.7,0.8 1.5,1.6 2.3,2.3 0.6,0.6 0.8,1.1 0.6,2 -1.1,3.8 0.5,7.4 4.1,9.2 1,0.5 1.3,1.1 1.3,2.2 0,8.4 0,16.8 0,25.2 0,0.6 0,1.2 -0.2,1.8 -0.4,1.5 -1.5,2.2 -3,2.1 -1.5,-0.1 -2.4,-1 -2.6,-2.5 -0.1,-0.7 0,-1.3 0,-2 -0.1,-4.6 -2.6,-7.8 -7.2,-8.6 -1.4,-0.2 -1.3,-0.9 -1.3,-1.8 0,-10.3 0,-20.6 0,-31 0,-6.2 -3.8,-10 -10,-10 -7.1,0 -14.1,0 -21.2,0 -1,0 -1.9,0 -2.9,0.2 -4.6,1.2 -7.2,4.8 -7.2,9.9 0,17.2 0,34.5 0,51.7 0,1.1 -0.2,1.7 -1.4,1.9 -1.7,0.3 -2.7,1.5 -3.3,3 -0.4,1.1 -0.5,1.8 1.2,1.8 8.1,-0.1 16.3,0 24.4,0 8.1,0 16.2,0 24.3,0 1.8,0 2,-0.2 1.3,-1.9 -0.8,-1.8 -2.2,-2.9 -4.1,-3 -1,-0.1 -1.3,-0.4 -1.2,-1.4 0,-4.6 0.1,-9.1 0,-13.7 0,-1.7 0.7,-1.5 1.7,-1 2.1,1 2.4,2.9 2.4,5 0,4.4 3,7.6 7.1,7.7 4.2,0 7.3,-3.2 7.3,-7.7 0,-11.2 0,-22.5 0,-33.7 0.1,-0.8 -0.1,-1.5 -0.7,-2.1 z m -26.3,9.7 c -4,-0.1 -8,0 -11.9,0 -4,0 -8.1,0 -12.1,0 -1,0 -1.3,-0.3 -1.3,-1.3 0,-5 0,-10.1 0,-15.1 0,-2 0.7,-2.7 2.7,-2.7 7.1,0 14.2,0 21.3,0 1.8,0 2.6,0.8 2.6,2.6 0,5 0,10.1 0,15.1 0.1,1.1 -0.1,1.4 -1.3,1.4 z"
        class="st32" />

</g>

                <g
                    id="iconFault"
                    style="display:none">
    <path
        id="path2357"
        d="m 1717.7,716 c -11.3,0 -22.5,0 -33.8,0 -0.3,0 -0.7,0 -1,-0.1 -0.9,-0.2 -1.4,-0.8 -1.5,-1.7 0,-0.6 0.1,-1.1 0.4,-1.7 0.8,-1.6 1.7,-3.1 2.6,-4.6 9,-15.8 18,-31.6 27,-47.5 1.8,-3.2 3.6,-6.3 5.4,-9.5 0.3,-0.5 0.8,-0.8 1.4,-0.8 0.6,0 1,0.2 1.3,0.8 4.9,8.7 9.7,17.5 14.6,26.2 6.1,11 12.2,21.9 18.4,32.9 0.4,0.6 0.7,1.3 1.1,1.9 0.3,0.6 0.5,1.2 0.5,1.8 0,1.2 -0.9,2.2 -2.2,2.2 -7,0 -14,0 -21,0 -4.4,0.1 -8.8,0.1 -13.2,0.1 z"
        class="st31" />

                    <path
                        id="path2359"
                        d="m 1723.2,674.2 c -0.1,1.5 -0.2,3.2 -0.4,4.9 -0.1,1.2 -0.2,2.3 -0.3,3.5 -0.2,2.1 -0.3,4.1 -0.5,6.2 -0.1,1.2 -0.2,2.3 -0.3,3.5 -0.1,0.8 -0.1,1.6 -0.2,2.4 -0.1,1.5 -1.3,2.9 -2.9,3.2 -2,0.4 -3.9,-0.8 -4.3,-2.8 -0.1,-0.3 -0.1,-0.6 -0.1,-0.9 -0.2,-2.3 -0.4,-4.7 -0.6,-7 -0.2,-2.6 -0.5,-5.2 -0.7,-7.8 -0.1,-1.7 -0.3,-3.4 -0.4,-5.1 0,0 0,-0.1 0,-0.1 -0.2,-0.9 0.2,-1.7 0.8,-2.3 1,-0.9 2.2,-1.5 3.5,-1.7 1.5,-0.3 2.9,0.1 4.2,0.9 0.5,0.3 0.9,0.6 1.2,1 0.8,0.5 1,1 1,2.1 z"
                        class="st32" />

                    <path
                        id="path2361"
                        d="m 1718.1,710.8 c -2.8,0 -5.1,-2.3 -5.1,-5.1 0,-2.8 2.3,-5.1 5.2,-5.1 2.8,0 5.1,2.3 5.1,5.1 -0.1,2.8 -2.4,5.1 -5.2,5.1 z"
                        class="st32" />

</g>

                <g
                    id="iconVideo"
                    style="display:none">
    <path
        id="path2365"
        d="M1747.9,771.4c-3.7,0-7.4,0-11,0c-0.5,0-0.9-0.1-1.2-0.5c-2.1-2.2-4.3-4.4-6.4-6.5c-1.2-1.2-2.6-2-4.3-2   c-5,0-10,0-15,0c-1.6,0-3,0.6-4.1,1.8c-2.2,2.2-4.4,4.4-6.6,6.7c-0.4,0.4-0.8,0.6-1.4,0.6c-3.7,0-7.4,0-11,0   c-3.8,0-6.3,2.4-6.3,6.3c0,11.7,0,23.3,0,35c0,3.8,2.5,6.3,6.3,6.3c10.1,0,20.3,0,30.4,0c10.2,0,20.4,0,30.6,0   c3.6,0,6.2-2.6,6.2-6.2c0-11.7,0-23.5,0-35.2C1754,773.9,1751.5,771.4,1747.9,771.4z M1717.3,810c-9,0-16.3-7.3-16.3-16.3   c0-9,7.3-16.4,16.2-16.4c9,0,16.4,7.3,16.4,16.4C1733.6,802.6,1726.3,809.9,1717.3,810z M1747,780.8c-1.4,0-2.5-1.1-2.5-2.5   c0-1.4,1.2-2.6,2.5-2.5c1.3,0,2.4,1.2,2.4,2.5C1749.4,779.7,1748.3,780.8,1747,780.8z"
        class="st0" />

                    <path
                        id="path2367"
                        d="M1717.3,781.3c6.8,0,12.3,5.5,12.3,12.4c0,6.8-5.6,12.4-12.4,12.4c-6.8,0-12.3-5.6-12.3-12.4   C1705,786.8,1710.5,781.2,1717.3,781.3z"
                        class="st0" />
    </g>
    </g>
        <!-- Lean Angle Dial -->
        <path
            id="angleDial"
            d="M855.4,855.3c33.2-58.6,110.8-80.9,173.4-49.9c47.3,23.4,72.5,70.6,67.7,117.5l22.9,2  c5.6-55.3-24.1-110.9-79.8-138.6c-73.8-36.6-165.3-10.2-204.4,58.8c-13.4,23.7-18.9,49.3-17.4,74.3l22.9-1.2  C839.4,897.1,844,875.4,855.4,855.3z"
            class="st1" />

        <g
            id="angleTicks">
        <path
            id="angle9L"
            style="display:none"
            d="m 853.5,917.4 v 2.4 c 0,1.3 -1,2.3 -2.1,2.2 l -44.3,-0.7 c -1.2,0 -2.1,-1.1 -2.1,-2.3 v -2.4 c 0,-1.3 1,-2.3 2.1,-2.2 l 44.3,0.7 c 1.2,0 2.1,1.1 2.1,2.3 z"
            class="st0" />

            <path
                id="angle8L"
                style="display:none"
                d="m 855.7,897.2 -0.4,2.4 c -0.2,1.2 -1.3,2.1 -2.5,1.8 l -43.5,-8.5 c -1.1,-0.2 -1.9,-1.4 -1.6,-2.6 l 0.4,-2.4 c 0.2,-1.2 1.3,-2.1 2.5,-1.8 l 43.5,8.5 c 1.1,0.2 1.8,1.4 1.6,2.6 z"
                class="st0" />

            <path
                id="angle7L"
                style="display:none"
                d="m 861.2,877.7 -0.8,2.2 c -0.4,1.2 -1.7,1.8 -2.8,1.4 l -41.4,-16 c -1.1,-0.4 -1.6,-1.7 -1.2,-2.9 l 0.8,-2.2 c 0.4,-1.2 1.7,-1.8 2.8,-1.4 l 41.4,16 c 1.2,0.4 1.7,1.7 1.2,2.9 z"
                class="st0" />

            <path
                id="angle6L"
                style="display:none"
                d="m 870.1,859.5 -1.2,2.1 c -0.6,1.1 -2,1.5 -3,0.9 l -38,-23 c -1,-0.6 -1.3,-2 -0.7,-3.1 l 1.2,-2.1 c 0.6,-1.1 2,-1.5 3,-0.9 l 38,23 c 1,0.6 1.3,2 0.7,3.1 z"
                class="st0" />

            <path
                id="angle5L"
                style="display:none"
                d="m 881.9,843.1 -1.6,1.8 c -0.8,1 -2.2,1.1 -3.1,0.3 l -33.4,-29.3 c -0.9,-0.8 -0.9,-2.2 -0.1,-3.1 l 1.6,-1.8 c 0.8,-1 2.2,-1.1 3.1,-0.3 l 33.4,29.3 c 0.9,0.7 0.9,2.1 0.1,3.1 z"
                class="st0" />

            <path
                id="angle4L"
                style="display:none"
                d="m 896.4,829 -1.8,1.5 c -1,0.8 -2.3,0.7 -3.1,-0.2 l -27.9,-34.8 c -0.7,-0.9 -0.5,-2.3 0.4,-3.1 l 1.8,-1.5 c 1,-0.8 2.3,-0.7 3.1,0.2 l 27.9,34.8 c 0.8,0.9 0.6,2.3 -0.4,3.1 z"
                class="st0" />

            <path
                id="angle3L"
                style="display:none"
                d="m 913.1,817.6 -2.1,1.2 c -1.1,0.6 -2.4,0.3 -3,-0.8 l -21.5,-39.1 c -0.6,-1 -0.1,-2.4 0.9,-3 l 2.1,-1.2 c 1.1,-0.6 2.4,-0.3 3,0.8 l 21.5,39.1 c 0.6,1.1 0.2,2.4 -0.9,3 z"
                class="st0" />

            <path
                id="angle2L"
                style="display:none"
                d="m 931.5,809.4 -2.2,0.8 c -1.2,0.4 -2.4,-0.2 -2.8,-1.3 L 912,766.6 c -0.4,-1.1 0.3,-2.3 1.4,-2.8 l 2.2,-0.8 c 1.2,-0.4 2.4,0.2 2.8,1.3 l 14.5,42.3 c 0.4,1.2 -0.3,2.4 -1.4,2.8 z"
                class="st0" />

            <path
                id="angle1L"
                style="display:none"
                d="m 951,804.5 -2.3,0.4 c -1.2,0.2 -2.4,-0.6 -2.6,-1.7 l -7,-44.2 c -0.2,-1.2 0.7,-2.3 1.9,-2.5 l 2.3,-0.4 c 1.2,-0.2 2.4,0.6 2.6,1.7 l 7,44.2 c 0.1,1.2 -0.7,2.3 -1.9,2.5 z"
                class="st0" />

            <path
                id="angle0"
                style="display:none"
                d="m 971,803.2 h -2.4 c -1.2,0 -2.2,-1 -2.2,-2.2 l 0.7,-44.8 c 0,-1.2 1,-2.1 2.3,-2.1 h 2.4 c 1.2,0 2.2,1 2.2,2.2 l -0.7,44.8 c 0,1.1 -1,2.1 -2.3,2.1 z"
                class="st0" />

            <path
                id="angle1R"
                style="display:none"
                d="m 991,805.3 -2.3,-0.5 c -1.2,-0.2 -2,-1.4 -1.8,-2.5 l 8.4,-44 c 0.2,-1.2 1.4,-1.9 2.6,-1.7 l 2.3,0.5 c 1.2,0.2 2,1.4 1.8,2.5 l -8.4,44 c -0.2,1.2 -1.4,2 -2.6,1.7 z"
                class="st0" />

            <path
                id="angle2R"
                style="display:none"
                d="m 1010.3,811 -2.2,-0.9 c -1.2,-0.4 -1.8,-1.7 -1.4,-2.8 l 15.8,-41.8 c 0.4,-1.1 1.7,-1.6 2.9,-1.2 l 2.2,0.9 c 1.2,0.4 1.8,1.7 1.4,2.8 l -15.8,41.8 c -0.5,1.1 -1.7,1.6 -2.9,1.2 z"
                class="st0" />

            <path
                id="angle3R"
                style="display:none"
                d="m 1028.3,819.9 -2,-1.2 c -1.1,-0.6 -1.4,-2 -0.9,-3 l 22.8,-38.4 c 0.6,-1 1.9,-1.3 3,-0.7 l 2,1.2 c 1.1,0.6 1.4,2 0.9,3 l -22.8,38.4 c -0.5,1 -1.9,1.3 -3,0.7 z"
                class="st0" />

            <path
                id="angle4R"
                style="display:none"
                d="m 1044.6,831.9 -1.8,-1.6 c -0.9,-0.8 -1.1,-2.2 -0.3,-3.1 l 29,-33.8 c 0.8,-0.9 2.1,-0.9 3.1,-0.1 l 1.8,1.6 c 0.9,0.8 1.1,2.2 0.3,3.1 l -29,33.8 c -0.8,0.8 -2.2,0.9 -3.1,0.1 z"
                class="st0" />

            <path
                id="angle5R"
                style="display:none"
                d="m 1058.5,846.5 -1.5,-1.9 c -0.8,-1 -0.7,-2.4 0.2,-3.1 l 34.4,-28.2 c 0.9,-0.7 2.3,-0.6 3.1,0.4 l 1.5,1.9 c 0.8,1 0.7,2.4 -0.2,3.1 l -34.4,28.2 c -0.9,0.8 -2.3,0.6 -3.1,-0.4 z"
                class="st0" />

            <path
                id="angle6R"
                style="display:none"
                d="m 1069.7,863.4 -1.2,-2.1 c -0.6,-1.1 -0.3,-2.5 0.7,-3 l 38.7,-21.7 c 1,-0.6 2.3,-0.1 2.9,1 l 1.2,2.1 c 0.6,1.1 0.3,2.5 -0.7,3 l -38.7,21.7 c -1,0.5 -2.3,0.1 -2.9,-1 z"
                class="st0" />

            <path
                id="angle7R"
                style="display:none"
                d="m 1077.8,882 -0.8,-2.3 c -0.4,-1.2 0.2,-2.5 1.3,-2.8 l 41.9,-14.6 c 1.1,-0.4 2.3,0.3 2.7,1.5 l 0.8,2.3 c 0.4,1.2 -0.2,2.5 -1.3,2.8 l -41.9,14.6 c -1,0.3 -2.2,-0.4 -2.7,-1.5 z"
                class="st0" />

            <path
                id="angle8R"
                style="display:none"
                d="m 1082.7,901.7 -0.4,-2.4 c -0.2,-1.2 0.6,-2.4 1.7,-2.6 l 43.7,-7 c 1.1,-0.2 2.2,0.7 2.4,1.9 l 0.4,2.4 c 0.2,1.2 -0.6,2.4 -1.7,2.6 l -43.7,7 c -1.1,0.2 -2.2,-0.7 -2.4,-1.9 z"
                class="st0" />

            <path
                id="angle9R"
                style="display:none"
                d="m 1084,922 v -2.4 c 0,-1.3 1,-2.3 2.1,-2.2 l 44.3,0.7 c 1.2,0 2.1,1.1 2.1,2.3 v 2.4 c 0,1.3 -1,2.3 -2.1,2.2 l -44.3,-0.7 c -1.2,-0.1 -2.1,-1.1 -2.1,-2.3 z"
                class="st0" />
    </g>

        <ellipse
            id="angleUnit"
            ry="6.7"
            rx="7.1"
            cy="859.3"
            cx="1012.7"
            class="st7" />

        <ellipse
            id="angleMaxLUnit"
            ry="4.9000001"
            rx="5.3000002"
            cy="946.70001"
            cx="878.5"
            class="st11" />

        <text
            id="text1199"
            class="st8 st9 st12"
            transform="matrix(1.0684 0 0 1 925.8179 984.5967)">MAX</text>

        <ellipse
            id="angleMaxRUnit"
            ry="4.9"
            rx="5.3"
            cy="946.7"
            cx="1128.7"
            class="st11" />


        <path id="angleDivider"
            d="m 817.4,1002.9 c 26.4,-1 52.7,-1.6 79.1,-1.9 13.2,-0.2 26.4,-0.3 39.5,-0.4 l 39.5,-0.1 39.5,0.1 c 13.2,0.1 26.4,0.2 39.5,0.4 26.4,0.4 52.7,0.9 79.1,2 -26.4,1 -52.7,1.6 -79.1,2 -13.2,0.2 -26.4,0.3 -39.5,0.4 l -39.5,0.1 -39.5,-0.1 c -13.2,-0.1 -26.4,-0.2 -39.5,-0.4 -26.4,-0.6 -52.7,-1.1 -79.1,-2.1 z"
            class="st8" />

        <!-- RPM Dial -->
        <g
            id="rpmTicks">
        <polygon
            id="rpmTick1"
            style="display:none"
            points="477.1,938.8 477.3,944.3 405.7,948.5 405.5,942.9 "
            class="st27" />

            <polygon
                id="rpmTick2"
                style="display:none"
                points="476.6,925.8 476.6,931.3 404.8,933.6 404.8,928 "
                class="st27" />

            <polygon
                id="rpmTick3"
                style="display:none"
                points="476.5,912.8 476.3,918.3 404.3,918.6 404.5,913.1 "
                class="st27" />

            <polygon
                id="rpmTick4"
                style="display:none"
                points="476.8,899.8 476.5,905.3 404.3,903.7 404.6,898.2 "
                class="st27" />

            <polygon
                id="rpmTick5"
                style="display:none"
                points="477.5,886.8 477,892.3 404.8,888.7 405.2,883.2 "
                class="st27" />

            <polygon
                id="rpmTick6"
                style="display:none"
                points="478.5,873.8 477.9,879.3 405.7,873.8 406.3,868.3 "
                class="st27" />

            <polygon
                id="rpmTick7"
                style="display:none"
                points="480,860.8 479.2,866.3 407,858.9 407.8,853.4 "
                class="st27" />

            <polygon
                id="rpmTick8"
                style="display:none"
                points="481.8,847.9 480.9,853.4 408.8,844 409.8,838.5 "
                class="st27" />

            <polygon
                id="rpmTick9"
                style="display:none"
                points="484.1,835 482.9,840.5 411.1,829.2 412.2,823.7 "
                class="st27" />

            <polygon
                id="rpmTick10"
                style="display:none"
                points="486.7,822.2 485.4,827.6 413.7,814.4 415,809 "
                class="st27" />

            <polygon
                id="rpmTick11"
                style="display:none"
                points="418.3,794.3 489.7,809.5 488.3,814.8 416.9,799.7 "
                class="st27" />

            <polygon
                id="rpmTick12"
                style="display:none"
                points="422.1,779.7 493.1,796.8 491.5,802.1 420.4,785 "
                class="st27" />

            <polygon
                id="rpmTick13"
                style="display:none"
                points="496.9,784.2 495.1,789.5 424.5,770.5 426.2,765.2 "
                class="st27" />

            <polygon
                id="rpmTick14"
                style="display:none"
                points="501.1,771.7 499.1,777 428.9,756 430.9,750.8 "
                class="st27" />

            <polygon
                id="rpmTick15"
                style="display:none"
                points="505.6,759.3 503.5,764.5 433.8,741.7 435.9,736.5 "
                class="st27" />

            <polygon
                id="rpmTick16"
                style="display:none"
                points="510.6,747.1 508.3,752.2 439.2,727.5 441.4,722.4 "
                class="st27" />

            <polygon
                id="rpmTick17"
                style="display:none"
                points="515.9,735 513.4,740 444.9,713.4 447.4,708.4 "
                class="st27" />

            <polygon
                id="rpmTick18"
                style="display:none"
                points="521.5,723 518.9,728 451.1,699.5 453.7,694.5 "
                class="st27" />

            <polygon
                id="rpmTick19"
                style="display:none"
                points="527.6,711.1 524.8,716.1 457.8,685.8 460.5,680.8 "
                class="st27" />

            <polygon
                id="rpmTick20"
                style="display:none"
                points="534,699.5 531.1,704.3 464.8,672.2 467.7,667.3 "
                class="st27" />

            <polygon
                id="rpmTick21"
                style="display:none"
                points="540.7,688 537.7,692.8 472.3,658.8 475.3,654 "
                class="st27" />

            <polygon
                id="rpmTick22"
                style="display:none"
                points="547.8,676.7 544.6,681.4 480.2,645.6 483.4,640.9 "
                class="st27" />

            <polygon
                id="rpmTick23"
                style="display:none"
                points="555.3,665.5 551.9,670.1 488.5,632.7 491.8,628 "
                class="st27" />

            <polygon
                id="rpmTick24"
                style="display:none"
                points="563.1,654.6 559.6,659.1 497.2,619.9 500.6,615.4 "
                class="st27" />

            <polygon
                id="rpmTick25"
                style="display:none"
                points="571.2,643.9 567.6,648.3 506.2,607.4 509.8,602.9 "
                class="st27" />

            <polygon
                id="rpmTick26"
                style="display:none"
                points="579.7,633.4 575.9,637.7 515.7,595.1 519.5,590.7 "
                class="st27" />

            <polygon
                id="rpmTick27"
                style="display:none"
                points="588.5,623.1 584.6,627.3 525.6,583.1 529.4,578.8 "
                class="st27" />

            <polygon
                id="rpmTick28"
                style="display:none"
                points="597.6,613.1 593.6,617.2 535.8,571.3 539.8,567.2 "
                class="st27" />

            <polygon
                id="rpmTick29"
                style="display:none"
                points="607,603.3 602.9,607.3 546.4,559.8 550.5,555.8 "
                class="st27" />

            <polygon
                id="rpmTick30"
                style="display:none"
                points="616.7,593.7 612.5,597.7 557.3,548.6 561.6,544.7 "
                class="st27" />

            <polygon
                id="rpmTick31"
                style="display:none"
                points="626.8,584.5 622.4,588.3 568.6,537.7 573,533.9 "
                class="st27" />

            <polygon
                id="rpmTick32"
                style="display:none"
                points="637.1,575.5 632.6,579.2 580.3,527.1 584.8,523.4 "
                class="st27" />

            <polygon
                id="rpmTick33"
                style="display:none"
                points="647.7,566.8 643,570.3 592.3,516.9 596.9,513.3 "
                class="st27" />

            <polygon
                id="rpmTick34"
                style="display:none"
                points="658.5,558.3 653.8,561.8 604.6,506.9 609.3,503.4 "
                class="st27" />

            <polygon
                id="rpmTick35"
                style="display:none"
                points="669.7,550.2 664.8,553.5 617.2,497.3 622,494 "
                class="st27" />

            <polygon
                id="rpmTick36"
                style="display:none"
                points="681.1,542.4 676.1,545.5 630.1,488 635.1,484.8 "
                class="st27" />

            <polygon
                id="rpmTick37"
                style="display:none"
                points="692.7,534.9 687.6,537.9 643.3,479.1 648.4,476 "
                class="st27" />

            <polygon
                id="rpmTick38"
                style="display:none"
                points="704.6,527.7 699.4,530.5 656.8,470.5 662,467.6 "
                class="st27" />

            <polygon
                id="rpmTick39"
                style="display:none"
                points="716.7,520.8 711.4,523.5 670.6,462.3 675.8,459.5 "
                class="st27" />

            <polygon
                id="rpmTick40"
                style="display:none"
                points="689.9,451.9 729,514.2 723.6,516.8 684.6,454.5 "
                class="st27" />

            <polygon
                id="rpmTick41"
                style="display:none"
                points="704.3,444.6 741.5,508 736.1,510.5 698.9,447.1 "
                class="st27" />

            <polygon
                id="rpmTick42"
                style="display:none"
                points="718.9,437.7 754.2,502.2 748.7,504.5 713.4,440 "
                class="st27" />

            <polygon
                id="rpmTick43"
                style="display:none"
                points="767.1,496.6 761.5,498.8 728.1,433.4 733.7,431.2 "
                class="st27" />

            <polygon
                id="rpmTick44"
                style="display:none"
                points="748.7,425.1 780.2,491.5 774.5,493.5 743,427.1 "
                class="st27" />

            <polygon
                id="rpmTick45"
                style="display:none"
                points="763.9,419.4 793.4,486.7 787.7,488.5 758.2,421.3 "
                class="st27" />

            <polygon
                id="rpmTick46"
                style="display:none"
                points="806.8,482.2 801.1,483.9 773.5,415.9 779.3,414.2 "
                class="st27" />

            <polygon
                id="rpmTick47"
                style="display:none"
                points="820.3,478.1 814.5,479.7 789,410.9 794.9,409.3 "
                class="st27" />

            <polygon
                id="rpmTick48"
                style="display:none"
                points="834,474.4 828.1,475.8 804.7,406.3 810.6,404.9 "
                class="st27" />

            <polygon
                id="rpmTick49"
                style="display:none"
                points="826.4,401 847.8,471.1 841.9,472.3 820.5,402.2 "
                class="st27" />

            <polygon
                id="rpmTick50"
                style="display:none"
                points="842.4,397.4 861.7,468.2 855.7,469.2 836.4,398.5 "
                class="st27" />

            <polygon
                id="rpmTick51"
                style="display:none"
                points="875.7,465.6 869.7,466.5 852.5,395.2 858.5,394.3 "
                class="st27" />

            <polygon
                id="rpmTick52"
                style="display:none"
                points="889.7,463.4 883.7,464.1 868.7,392.4 874.7,391.7 "
                class="st27" />

            <polygon
                id="rpmTick53"
                style="display:none"
                points="903.9,461.6 897.8,462.2 884.9,390.1 891,389.5 "
                class="st27" />

            <polygon
                id="rpmTick54"
                style="display:none"
                points="907.4,387.7 918,460.2 912,460.6 901.3,388.1 "
                class="st27" />

            <polygon
                id="rpmTick55"
                style="display:none"
                points="923.8,386.4 932.3,459.2 926.2,459.4 917.7,386.7 "
                class="st27" />

            <polygon
                id="rpmTick56"
                style="display:none"
                points="946.6,458.6 940.5,458.6 934.1,385.7 940.2,385.6 "
                class="st27" />

            <polygon
                id="rpmTick57"
                style="display:none"
                points="960.8,458.3 954.8,458.2 950.6,385.1 956.7,385.2 "
                class="st27" />

            <polygon
                id="rpmTick58"
                style="display:none"
                points="975.1,458.5 969.1,458.2 967.1,385 973.2,385.3 "
                class="st27" />

            <polygon
                id="rpmTick59"
                style="display:none"
                points="989.4,459 983.4,458.6 983.6,385.3 989.7,385.8 "
                class="st27" />

            <polygon
                id="rpmTick60"
                style="display:none"
                points="1003.7,460 997.7,459.4 1000.1,386.2 1006.2,386.8 "
                class="st27" />

            <polygon
                id="rpmTick61"
                style="display:none"
                points="1022.6,388.2 1018,461.3 1011.9,460.6 1016.6,387.4 "
                class="st27" />

            <polygon
                id="rpmTick62"
                style="display:none"
                points="1039.1,390.1 1032.2,463.1 1026.2,462.1 1033,389.1 "
                class="st27" />

            <polygon
                id="rpmTick63"
                style="display:none"
                points="1046.3,465.2 1040.3,464.1 1049.4,391.3 1055.4,392.4 "
                class="st27" />

            <polygon
                id="rpmTick64"
                style="display:none"
                points="1060.4,467.7 1054.5,466.4 1065.7,393.9 1071.7,395.2 "
                class="st27" />

            <polygon
                id="rpmTick65"
                style="display:none"
                points="1074.4,470.6 1068.5,469.1 1081.9,397 1087.9,398.4 "
                class="st27" />

            <polygon
                id="rpmTick66"
                style="display:none"
                points="1088.3,473.8 1082.5,472.3 1098.1,400.5 1104,402.1 "
                class="st27" />

            <polygon
                id="rpmTick67"
                style="display:none"
                points="1102.1,477.5 1096.3,475.7 1114.1,404.5 1119.9,406.2 "
                class="st27" />

            <polygon
                id="rpmTick68"
                style="display:none"
                points="1115.8,481.5 1110.1,479.6 1130,408.8 1135.8,410.8 "
                class="st27" />

            <polygon
                id="rpmTick69"
                style="display:none"
                points="1129.4,485.9 1123.7,483.9 1145.7,413.7 1151.5,415.8 "
                class="st27" />

            <polygon
                id="rpmTick70"
                style="display:none"
                points="1142.8,490.7 1137.2,488.5 1161.3,418.9 1167,421.2 "
                class="st27" />

            <polygon
                id="rpmTick71"
                style="display:none"
                points="1156.1,495.8 1150.6,493.5 1176.8,424.6 1182.4,427 "
                class="st27" />

            <polygon
                id="rpmTick72"
                style="display:none"
                points="1169.2,501.3 1163.7,498.8 1192,430.7 1197.5,433.3 "
                class="st27" />

            <polygon
                id="rpmTick73"
                style="display:none"
                points="1182.2,507.2 1176.8,504.5 1207.1,437.3 1212.5,440 "
                class="st27" />

            <polygon
                id="rpmTick74"
                style="display:none"
                points="1194.9,513.4 1189.6,510.6 1221.9,444.2 1227.3,447 "
                class="st27" />

            <polygon
                id="rpmTick75"
                style="display:none"
                points="1207.5,519.9 1202.3,517 1236.6,451.5 1241.8,454.5 "
                class="st27" />

            <polygon
                id="rpmTick76"
                style="display:none"
                points="1219.9,526.8 1214.7,523.7 1251,459.3 1256.1,462.4 "
                class="st27" />

            <polygon
                id="rpmTick77"
                style="display:none"
                points="1232,534.1 1226.9,530.8 1265.1,467.4 1270.2,470.7 "
                class="st27" />

            <polygon
                id="rpmTick78"
                style="display:none"
                points="1243.9,541.6 1239,538.2 1279,475.9 1284,479.3 "
                class="st27" />

            <polygon
                id="rpmTick79"
                style="display:none"
                points="1255.6,549.5 1250.7,546 1292.6,484.8 1297.5,488.3 "
                class="st27" />

            <polygon
                id="rpmTick80"
                style="display:none"
                points="1267,557.7 1262.3,554 1306,494 1310.7,497.7 "
                class="st27" />

            <polygon
                id="rpmTick81"
                style="display:none"
                points="1323.6,507.4 1278.2,566.1 1273.5,562.4 1319,503.6 "
                class="st27" />

            <polygon
                id="rpmTick82"
                style="display:none"
                points="1336.2,517.5 1289,574.9 1284.6,571 1331.7,513.6 "
                class="st27" />

            <polygon
                id="rpmTick83"
                style="display:none"
                points="1299.7,584 1295.3,580 1344.2,523.9 1348.5,527.9 "
                class="st27" />

            <polygon
                id="rpmTick84"
                style="display:none"
                points="1310,593.3 1305.8,589.2 1356.3,534.5 1360.5,538.7 "
                class="st27" />

            <polygon
                id="rpmTick85"
                style="display:none"
                points="1320,603 1315.9,598.7 1368,545.5 1372.2,549.7 "
                class="st27" />

            <polygon
                id="rpmTick86"
                style="display:none"
                points="1329.8,612.8 1325.8,608.5 1379.4,556.7 1383.4,561.1 "
                class="st27" />

            <polygon
                id="rpmTick87"
                style="display:none"
                points="1339.2,623 1335.4,618.5 1390.5,568.3 1394.4,572.7 "
                class="st27" />

            <polygon
                id="rpmTick88"
                style="display:none"
                points="1348.3,633.4 1344.6,628.8 1401.2,580.1 1404.9,584.7 "
                class="st27" />

            <polygon
                id="rpmTick89"
                style="display:none"
                points="1357.1,644 1353.5,639.4 1411.5,592.2 1415.1,596.9 "
                class="st27" />

            <polygon
                id="rpmTick90"
                style="display:none"
                points="1365.6,654.9 1362.1,650.1 1421.5,604.6 1424.9,609.4 "
                class="st27" />

            <polygon
                id="rpmTick91"
                style="display:none"
                points="1373.7,665.9 1370.4,661.1 1431,617.3 1434.3,622.1 "
                class="st27" />

            <polygon
                id="rpmTick92"
                style="display:none"
                points="1381.4,677.2 1378.3,672.3 1440.2,630.1 1443.3,635.1 "
                class="st27" />

            <polygon
                id="rpmTick93"
                style="display:none"
                points="1388.8,688.7 1385.9,683.7 1448.9,643.3 1451.9,648.3 "
                class="st27" />

            <polygon
                id="rpmTick94"
                style="display:none"
                points="1395.9,700.3 1393.1,695.3 1457.3,656.6 1460.1,661.7 "
                class="st27" />

            <polygon
                id="rpmTick95"
                style="display:none"
                points="1402.6,712.2 1399.9,707 1465.2,670.2 1467.8,675.3 "
                class="st27" />

            <polygon
                id="rpmTick96"
                style="display:none"
                points="1475.2,689.1 1408.9,724.2 1406.4,719 1472.7,683.9 "
                class="st27" />

            <polygon
                id="rpmTick97"
                style="display:none"
                points="1482.1,703.1 1414.9,736.3 1412.5,731.1 1479.8,697.8 "
                class="st27" />

            <polygon
                id="rpmTick98"
                style="display:none"
                points="1420.5,748.6 1418.3,743.3 1486.4,712 1488.6,717.3 "
                class="st27" />

            <polygon
                id="rpmTick99"
                style="display:none"
                points="1425.6,761.1 1423.6,755.7 1492.6,726.2 1494.6,731.6 "
                class="st27" />

            <polygon
                id="rpmTick100"
                style="display:none"
                points="1430.5,773.6 1428.6,768.2 1498.3,740.6 1500.2,746.1 "
                class="st27" />

            <polygon
                id="rpmTick101"
                style="display:none"
                points="1434.9,786.3 1433.2,780.9 1503.7,755.2 1505.3,760.7 "
                class="st27" />

            <polygon
                id="rpmTick102"
                style="display:none"
                points="1438.9,799.1 1437.4,793.6 1508.5,769.9 1510,775.4 "
                class="st27" />

            <polygon
                id="rpmTick103"
                style="display:inline"
                points="1442.6,812 1441.2,806.5 1512.9,784.6 1514.2,790.2 "
                class="st28" />

            <polygon
                id="rpmTick104"
                style="display:inline"
                points="1445.8,824.9 1444.6,819.4 1516.9,799.5 1518,805.1 "
                class="st28" />

            <polygon
                id="rpmTick105"
                style="display:inline"
                points="1521.3,820.1 1448.6,837.9 1447.6,832.4 1520.4,814.5 "
                class="st28" />

            <polygon
                id="rpmTick106"
                style="display:inline"
                points="1524.2,835.1 1451.1,851 1450.3,845.4 1523.4,829.5 "
                class="st28" />

            <polygon
                id="rpmTick107"
                style="display:inline"
                points="1526.6,850.2 1453.1,864.1 1452.5,858.5 1526,844.6 "
                class="st28" />

            <polygon
                id="rpmTick108"
                style="display:inline"
                points="1454.8,877.3 1454.3,871.7 1528.1,859.8 1528.5,865.4 "
                class="st28" />

            <polygon
                id="rpmTick109"
                style="display:inline"
                points="1456,890.5 1455.7,884.9 1529.7,874.9 1530,880.6 "
                class="st28" />

            <polygon
                id="rpmTick110"
                style="display:inline"
                points="1531,895.8 1456.9,903.7 1456.7,898.1 1530.9,890.1 "
                class="st28" />

            <polygon
                id="rpmTick111"
                style="display:inline"
                points="1457.3,916.9 1457.3,911.3 1531.6,905.3 1531.6,911 "
                class="st28" />

            <polygon
                id="rpmTick112"
                style="display:inline"
                points="1457.4,930.1 1457.6,924.5 1531.9,920.5 1531.6,926.1 "
                class="st28" />

            <polygon
                id="rpmTick113"
                style="display:inline"
                points="1457,943.3 1457.4,937.7 1531.7,935.7 1531.3,941.3 "
                class="st28" />
    </g>

        <g
            id="rpmNeedles">
        <path
            id="rpmNeedle0"
            style="display:none"
            d="m 507,931.1 1,13.8 c 0.1,1.2 -0.8,2.2 -2,2.2 l -141.4,1.3 c -1.2,0 -2.2,-1 -2.3,-2.1 l -1.1,-13.8 c -0.1,-1.2 0.8,-2.2 2,-2.2 l 141.5,-1.4 c 1.2,0 2.2,1 2.3,2.2 z"
            class="st0" />

            <path
                id="rpmNeedle1"
                style="display:none"
                d="m 507.1,910.1 0.4,13.9 c 0,1.2 -0.9,2.1 -2.1,2.1 L 363.7,921 c -1.2,0 -2.2,-1.1 -2.2,-2.3 l -0.4,-13.8 c 0,-1.2 0.9,-2.1 2.1,-2.1 l 141.7,5.1 c 1.1,0 2.1,1 2.2,2.2 z"
                class="st0" />

            <path
                id="rpmNeedle2"
                style="display:none"
                d="m 508.2,889.2 -0.3,13.9 c 0,1.2 -1,2.1 -2.2,2 L 364.2,893.5 c -1.2,-0.1 -2.1,-1.2 -2.1,-2.4 l 0.3,-13.9 c 0,-1.2 1,-2.1 2.2,-2 l 141.6,11.5 c 1.1,0.2 2,1.3 2,2.5 z"
                class="st0" />

            <path
                id="rpmNeedle3"
                style="display:none"
                d="m 510.4,868.3 -1,13.8 c -0.1,1.2 -1.1,2.1 -2.3,1.9 l -141,-18 c -1.2,-0.2 -2.1,-1.2 -2,-2.4 l 1,-13.8 c 0.1,-1.2 1.1,-2.1 2.3,-1.9 l 141.1,18 c 1.1,0.1 2,1.2 1.9,2.4 z"
                class="st0" />

            <path
                id="rpmNeedle4"
                style="display:none"
                d="m 513.6,847.6 -1.7,13.8 c -0.2,1.2 -1.2,2 -2.4,1.8 L 369.2,838.8 c -1.2,-0.2 -2,-1.3 -1.9,-2.5 l 1.7,-13.8 c 0.1,-1.2 1.2,-2 2.4,-1.8 L 511.8,845 c 1.2,0.2 2,1.4 1.8,2.6 z"
                class="st0" />

            <path
                id="rpmNeedle5"
                style="display:none"
                d="m 517.9,827 -2.4,13.7 c -0.2,1.2 -1.3,1.9 -2.5,1.7 L 373.8,811.6 c -1.2,-0.3 -2,-1.4 -1.8,-2.6 l 2.4,-13.7 c 0.2,-1.2 1.3,-1.9 2.5,-1.7 l 139.3,30.8 c 1.2,0.2 1.9,1.4 1.7,2.6 z"
                class="st0" />

            <path
                id="rpmNeedle6"
                style="display:none"
                d="m 523.3,806.6 -3.1,13.6 c -0.3,1.2 -1.4,1.9 -2.6,1.6 L 379.9,784.6 c -1.2,-0.3 -1.9,-1.5 -1.6,-2.7 l 3.1,-13.6 c 0.3,-1.2 1.4,-1.9 2.6,-1.6 l 137.8,37.2 c 1,0.3 1.7,1.5 1.5,2.7 z"
                class="st0" />

            <path
                id="rpmNeedle7"
                style="display:none"
                d="m 529.6,786.4 -3.8,13.4 c -0.3,1.2 -1.5,1.8 -2.7,1.4 l -136,-43.5 c -1.1,-0.4 -1.8,-1.6 -1.5,-2.8 l 3.7,-13.5 c 0.3,-1.2 1.5,-1.8 2.7,-1.5 l 136.1,43.5 c 1.2,0.6 1.9,1.9 1.5,3 z"
                class="st0" />

            <path
                id="rpmNeedle8"
                style="display:none"
                d="m 537,766.6 -4.5,13.2 c -0.4,1.1 -1.6,1.7 -2.8,1.3 L 395.8,731.4 c -1.1,-0.4 -1.7,-1.7 -1.4,-2.8 l 4.4,-13.3 c 0.4,-1.2 1.6,-1.7 2.7,-1.3 l 134,49.7 c 1.3,0.5 1.9,1.8 1.5,2.9 z"
                class="st0" />

            <path
                id="rpmNeedle9"
                style="display:none"
                d="m 545.4,747.1 -5.2,13 c -0.4,1.1 -1.7,1.7 -2.8,1.2 L 405.8,705.5 c -1.1,-0.5 -1.7,-1.8 -1.2,-2.9 l 5.1,-13.1 c 0.4,-1.1 1.7,-1.7 2.8,-1.2 l 131.7,55.8 c 1.1,0.6 1.6,1.9 1.2,3 z"
                class="st0" />

            <path
                id="rpmNeedle10"
                style="display:none"
                d="m 554.8,728 -5.8,12.8 c -0.5,1.1 -1.8,1.6 -2.9,1.1 L 417.2,680.1 c -1.1,-0.5 -1.6,-1.8 -1.1,-3 l 5.8,-12.8 c 0.5,-1.1 1.8,-1.6 2.9,-1.1 l 129,61.9 c 1,0.5 1.5,1.8 1,2.9 z"
                class="st0" />

            <path
                id="rpmNeedle11"
                style="display:none"
                d="m 565.1,709.4 -6.5,12.5 c -0.6,1.1 -1.9,1.5 -2.9,0.9 L 429.8,655.1 c -1.1,-0.6 -1.5,-1.9 -0.9,-3 l 6.4,-12.6 c 0.6,-1.1 1.9,-1.5 2.9,-0.9 l 126,67.8 c 1.1,0.6 1.5,1.9 0.9,3 z"
                class="st0" />

            <path
                id="rpmNeedle12"
                style="display:none"
                d="m 576.4,691.2 -7.1,12.2 c -0.6,1.1 -2,1.4 -3,0.8 L 443.7,630.7 c -1,-0.6 -1.4,-2 -0.8,-3.1 l 7.1,-12.3 c 0.6,-1.1 1.9,-1.4 3,-0.8 L 575.7,688 c 1,0.8 1.3,2.2 0.7,3.2 z"
                class="st0" />

            <path
                id="rpmNeedle13"
                style="display:none"
                d="m 588.6,673.6 -7.7,11.9 c -0.7,1 -2,1.3 -3,0.7 l -119,-79.1 c -1,-0.7 -1.3,-2 -0.6,-3.1 l 7.7,-11.9 c 0.7,-1 2,-1.3 3,-0.7 l 119,79.1 c 1,0.7 1.3,2.1 0.6,3.1 z"
                class="st0" />

            <path
                id="rpmNeedle14"
                style="display:none"
                d="m 601.7,656.6 -8.3,11.5 c -0.7,1 -2.1,1.2 -3.1,0.5 L 475.2,584.1 c -1,-0.7 -1.2,-2.1 -0.5,-3.1 l 8.3,-11.6 c 0.7,-1 2.1,-1.2 3.1,-0.5 l 115.2,84.6 c 0.9,0.7 1.1,2.1 0.4,3.1 z"
                class="st0" />

            <path
                id="rpmNeedle15"
                style="display:none"
                d="m 615.7,640.1 -8.9,11.1 c -0.8,1 -2.2,1.1 -3.1,0.4 L 492.8,561.8 c -0.9,-0.8 -1.1,-2.2 -0.3,-3.1 l 8.9,-11.2 c 0.8,-1 2.2,-1.1 3.1,-0.4 l 111,89.9 c 0.8,0.7 0.9,2.1 0.2,3.1 z"
                class="st0" />

            <path
                id="rpmNeedle16"
                style="display:none"
                d="M 630.5,624.3 621,635 c -0.8,0.9 -2.2,1 -3.1,0.2 L 511.4,540.4 c -0.9,-0.8 -1,-2.2 -0.1,-3.1 l 9.4,-10.8 c 0.8,-0.9 2.2,-1 3.1,-0.2 l 106.5,94.9 c 0.9,0.8 1,2.2 0.2,3.1 z"
                class="st0" />

            <path
                id="rpmNeedle17"
                style="display:none"
                d="m 646.1,609.2 -10,10.3 c -0.9,0.9 -2.3,0.9 -3.1,0.1 L 531.2,519.9 c -0.9,-0.8 -0.9,-2.3 0,-3.2 l 10,-10.3 c 0.9,-0.9 2.3,-0.9 3.1,-0.1 l 101.8,99.8 c 0.9,0.8 0.8,2.2 0,3.1 z"
                class="st0" />

            <path
                id="rpmNeedle18"
                style="display:none"
                d="m 662.5,594.8 -10.5,9.8 c -0.9,0.9 -2.3,0.8 -3.1,-0.1 L 552,500.2 c -0.8,-0.9 -0.7,-2.3 0.2,-3.1 l 10.5,-9.9 c 0.9,-0.9 2.3,-0.8 3.1,0 l 96.8,104.5 c 0.9,0.9 0.8,2.3 -0.1,3.1 z"
                class="st0" />

            <path
                id="rpmNeedle19"
                style="display:none"
                d="m 679.6,581.2 -11,9.3 c -1,0.8 -2.4,0.7 -3.1,-0.2 L 573.9,481.5 c -0.8,-0.9 -0.6,-2.3 0.3,-3.1 l 11,-9.4 c 1,-0.8 2.4,-0.7 3.1,0.2 l 91.6,108.9 c 0.8,0.9 0.6,2.3 -0.3,3.1 z"
                class="st0" />

            <path
                id="rpmNeedle20"
                style="display:none"
                d="m 697.4,568.4 -11.5,8.8 c -1,0.8 -2.4,0.6 -3.1,-0.3 L 596.6,464 c -0.7,-1 -0.5,-2.4 0.5,-3.1 l 11.5,-8.9 c 1,-0.8 2.4,-0.6 3.1,0.3 l 86.2,113.1 c 0.7,0.9 0.5,2.3 -0.5,3 z"
                class="st0" />

            <path
                id="rpmNeedle21"
                style="display:none"
                d="m 715.8,556.4 -12,8.3 c -1,0.7 -2.4,0.5 -3.1,-0.5 L 620.2,447.3 c -0.7,-1 -0.4,-2.4 0.6,-3.1 l 12,-8.3 c 1,-0.7 2.4,-0.5 3.1,0.5 l 80.5,117 c 0.7,0.9 0.4,2.3 -0.6,3 z"
                class="st0" />

            <path
                id="rpmNeedle22"
                style="display:none"
                d="m 734.9,545.3 -12.4,7.7 c -1.1,0.7 -2.5,0.4 -3.1,-0.6 L 644.8,431.9 c -0.6,-1 -0.3,-2.4 0.8,-3.1 L 658,421 c 1.1,-0.7 2.5,-0.4 3.1,0.6 l 74.6,120.6 c 0.6,1.1 0.2,2.4 -0.8,3.1 z"
                class="st0" />

            <path
                id="rpmNeedle23"
                style="display:none"
                d="m 754.5,535.1 -12.8,7.1 c -1.1,0.6 -2.5,0.3 -3.1,-0.8 L 670,417.5 c -0.6,-1 -0.2,-2.4 1,-3 l 12.8,-7.2 c 1.1,-0.6 2.5,-0.3 3.1,0.8 l 68.6,124 c 0.5,1 0.1,2.4 -1,3 z"
                class="st0" />

            <path
                id="rpmNeedle24"
                style="display:none"
                d="m 774.6,525.7 -13.1,6.5 c -1.1,0.6 -2.5,0.2 -3,-0.9 l -62.3,-127 c -0.5,-1.1 0,-2.4 1.1,-3 l 13.2,-6.6 c 1.1,-0.6 2.5,-0.2 3,0.9 l 62.3,127.1 c 0.5,1.2 0,2.5 -1.2,3 z"
                class="st0" />

            <path
                id="rpmNeedle25"
                style="display:none"
                d="m 795.2,517.4 -13.5,5.9 c -1.2,0.5 -2.5,0 -3,-1 L 722.8,392.5 c -0.5,-1.1 0.1,-2.4 1.3,-2.9 l 13.5,-6 c 1.2,-0.5 2.5,0 3,1.1 l 55.9,129.9 c 0.5,0.9 -0.1,2.2 -1.3,2.8 z"
                class="st0" />

            <path
                id="rpmNeedle26"
                style="display:none"
                d="m 816.3,509.9 -13.8,5.3 c -1.2,0.5 -2.5,-0.1 -2.9,-1.2 L 750.2,381.7 c -0.4,-1.1 0.2,-2.4 1.4,-2.9 l 13.8,-5.4 c 1.2,-0.5 2.5,0.1 2.9,1.2 L 817.6,507 c 0.5,1.2 -0.1,2.5 -1.3,2.9 z"
                class="st0" />

            <path
                id="rpmNeedle27"
                style="display:none"
                d="m 837.7,503.5 -14,4.6 c -1.2,0.4 -2.5,-0.2 -2.9,-1.3 L 778.1,372.3 c -0.4,-1.1 0.3,-2.4 1.6,-2.8 l 14.1,-4.7 c 1.2,-0.4 2.5,0.2 2.9,1.3 l 42.7,134.6 c 0.2,1.1 -0.5,2.4 -1.7,2.8 z"
                class="st0" />

            <path
                id="rpmNeedle28"
                style="display:none"
                d="m 859.4,498 -14.3,4 c -1.2,0.3 -2.5,-0.3 -2.8,-1.4 L 806.4,364.2 c -0.3,-1.2 0.5,-2.4 1.7,-2.7 l 14.3,-4.1 c 1.2,-0.4 2.5,0.3 2.8,1.5 l 35.9,136.5 c 0.3,1.1 -0.5,2.3 -1.7,2.6 z"
                class="st0" />

            <path
                id="rpmNeedle29"
                style="display:none"
                d="m 881.4,493.6 -14.5,3.3 c -1.3,0.3 -2.5,-0.4 -2.7,-1.6 l -29,-138 c -0.2,-1.2 0.6,-2.4 1.8,-2.6 l 14.5,-3.4 c 1.3,-0.3 2.5,0.4 2.7,1.6 l 29,138.1 c 0.3,1.1 -0.6,2.3 -1.8,2.6 z"
                class="st0" />

            <path
                id="rpmNeedle30"
                style="display:none"
                d="m 903.6,490.1 -14.6,2.7 c -1.3,0.2 -2.4,-0.5 -2.6,-1.7 L 864.3,351.9 c -0.2,-1.2 0.7,-2.3 2,-2.6 l 14.7,-2.7 c 1.3,-0.2 2.5,0.5 2.6,1.7 l 22,139.3 c 0.2,1.2 -0.7,2.3 -2,2.5 z"
                class="st0" />

            <path
                id="rpmNeedle31"
                style="display:none"
                d="m 926,487.7 -14.7,2 c -1.3,0.2 -2.4,-0.6 -2.5,-1.8 l -15,-140.1 c -0.1,-1.2 0.8,-2.3 2.1,-2.5 l 14.8,-2 c 1.3,-0.2 2.4,0.6 2.6,1.8 l 14.9,140.2 c 0,1.2 -0.9,2.3 -2.2,2.4 z"
                class="st0" />

            <path
                id="rpmNeedle32"
                style="display:none"
                d="m 948.5,486.4 -14.8,1.3 c -1.3,0.1 -2.4,-0.8 -2.5,-1.9 L 923.3,345 c -0.1,-1.2 0.9,-2.3 2.2,-2.4 l 14.9,-1.3 c 1.3,-0.1 2.4,0.8 2.5,2 l 7.8,140.8 c 0.1,1.1 -0.9,2.2 -2.2,2.3 z"
                class="st0" />

            <path
                id="rpmNeedle33"
                style="display:none"
                d="m 971,486.1 -14.9,0.6 c -1.3,0.1 -2.3,-0.9 -2.4,-2 l -0.8,-141 c 0,-1.2 1,-2.2 2.3,-2.3 l 15,-0.6 c 1.3,-0.1 2.4,0.9 2.4,2.1 l 0.7,141 c 0.1,1.1 -1,2.1 -2.3,2.2 z"
                class="st0" />

            <path
                id="rpmNeedle34"
                style="display:none"
                d="m 993.6,486.8 -14.9,-0.1 c -1.3,0 -2.3,-1 -2.2,-2.2 l 6.3,-140.9 c 0.1,-1.2 1.2,-2.2 2.5,-2.2 l 15,0.1 c 1.3,0 2.3,1 2.3,2.2 l -6.6,141 c 0,1.1 -1.1,2.1 -2.4,2.1 z"
                class="st0" />

            <path
                id="rpmNeedle35"
                style="display:none"
                d="m 1016.1,488.6 -14.9,-0.8 c -1.3,-0.1 -2.3,-1.1 -2.1,-2.3 l 13.4,-140.4 c 0.1,-1.2 1.3,-2.1 2.6,-2 l 15,0.8 c 1.3,0.1 2.3,1.1 2.1,2.3 l -13.5,140.5 c -0.2,1 -1.3,1.9 -2.6,1.9 z"
                class="st0" />

            <path
                id="rpmNeedle36"
                style="display:none"
                d="m 1038.5,491.4 -14.9,-1.5 c -1.3,-0.1 -2.2,-1.2 -2,-2.4 l 20.5,-139.7 c 0.2,-1.2 1.4,-2 2.7,-1.9 l 14.9,1.4 c 1.3,0.1 2.2,1.2 2,2.4 l -20.6,139.7 c -0.2,1.2 -1.3,2.1 -2.6,2 z"
                class="st0" />

            <path
                id="rpmNeedle37"
                style="display:none"
                d="m 1060.7,495.2 -14.8,-2.1 c -1.3,-0.2 -2.1,-1.3 -1.9,-2.4 l 27.6,-138.6 c 0.2,-1.2 1.5,-2 2.8,-1.8 l 14.8,2.1 c 1.3,0.2 2.1,1.3 1.9,2.5 l -27.7,138.6 c -0.2,1.1 -1.4,1.9 -2.7,1.7 z"
                class="st0" />

            <path
                id="rpmNeedle38"
                style="display:none"
                d="m 1082.7,500 -14.6,-2.8 c -1.3,-0.2 -2.1,-1.4 -1.8,-2.5 l 34.6,-137.1 c 0.3,-1.2 1.6,-1.9 2.8,-1.7 l 14.7,2.8 c 1.3,0.2 2.1,1.4 1.8,2.6 l -34.7,137.1 c -0.2,1.2 -1.5,1.9 -2.8,1.6 z"
                class="st0" />

            <path
                id="rpmNeedle39"
                style="display:none"
                d="m 1104.5,505.9 -14.5,-3.5 c -1.3,-0.3 -2,-1.5 -1.6,-2.6 l 41.5,-135.4 c 0.4,-1.1 1.7,-1.8 2.9,-1.5 l 14.6,3.5 c 1.3,0.3 2,1.5 1.7,2.6 l -41.6,135.4 c -0.5,1.1 -1.8,1.8 -3,1.5 z"
                class="st0" />

            <path
                id="rpmNeedle40"
                style="display:none"
                d="m 1125.9,512.8 -14.3,-4.2 c -1.2,-0.4 -1.9,-1.6 -1.5,-2.7 l 48.3,-133.3 c 0.4,-1.1 1.8,-1.8 3,-1.4 l 14.4,4.2 c 1.2,0.4 1.9,1.6 1.5,2.7 l -48.4,133.3 c -0.4,1.1 -1.8,1.7 -3,1.4 z"
                class="st0" />

            <path
                id="rpmNeedle41"
                style="display:none"
                d="m 1147,520.6 -14.1,-4.8 c -1.2,-0.4 -1.8,-1.6 -1.4,-2.7 l 55,-130.9 c 0.5,-1.1 1.8,-1.7 3.1,-1.2 l 14.1,4.8 c 1.2,0.4 1.8,1.7 1.4,2.8 L 1150,519.4 c -0.5,1.1 -1.8,1.6 -3,1.2 z"
                class="st0" />

            <path
                id="rpmNeedle42"
                style="display:none"
                d="m 1167.6,529.4 -13.8,-5.5 c -1.2,-0.5 -1.8,-1.7 -1.2,-2.8 l 61.5,-128.2 c 0.5,-1.1 1.9,-1.6 3.1,-1.1 l 13.9,5.5 c 1.2,0.5 1.8,1.7 1.2,2.8 l -61.6,128.1 c -0.5,1.2 -1.9,1.7 -3.1,1.2 z"
                class="st0" />

            <path
                id="rpmNeedle43"
                style="display:none"
                d="m 1187.8,539.2 -13.5,-6.1 c -1.2,-0.5 -1.7,-1.8 -1.1,-2.9 l 68,-125.2 c 0.6,-1.1 2,-1.5 3.2,-1 l 13.6,6.1 c 1.2,0.5 1.7,1.8 1.1,2.9 l -68,125.1 c -0.8,1.2 -2.2,1.6 -3.3,1.1 z"
                class="st0" />

            <path
                id="rpmNeedle44"
                style="display:none"
                d="m 1207.4,549.8 -13.2,-6.7 c -1.1,-0.6 -1.6,-1.9 -0.9,-2.9 l 74.2,-121.8 c 0.6,-1 2.1,-1.4 3.2,-0.8 l 13.3,6.7 c 1.2,0.6 1.6,1.9 0.9,2.9 L 1210.6,549 c -0.6,1.1 -2.1,1.4 -3.2,0.8 z"
                class="st0" />

            <path
                id="rpmNeedle45"
                style="display:none"
                d="m 1226.5,561.4 -12.8,-7.3 c -1.1,-0.6 -1.5,-2 -0.8,-2.9 L 1293.2,433 c 0.7,-1 2.1,-1.3 3.3,-0.7 l 12.9,7.3 c 1.1,0.6 1.5,2 0.8,3 l -80.3,118.2 c -0.9,0.9 -2.3,1.2 -3.4,0.6 z"
                class="st0" />

            <path
                id="rpmNeedle46"
                style="display:none"
                d="m 1244.9,573.8 -12.4,-7.9 c -1.1,-0.7 -1.4,-2 -0.6,-3 L 1318,448.6 c 0.7,-1 2.2,-1.2 3.3,-0.5 l 12.5,7.9 c 1.1,0.7 1.4,2 0.6,3 l -86.2,114.3 c -0.7,1 -2.2,1.2 -3.3,0.5 z"
                class="st0" />

            <path
                id="rpmNeedle47"
                style="display:none"
                d="m 1262.7,587 -12,-8.4 c -1,-0.7 -1.3,-2.1 -0.5,-3 L 1342,465.4 c 0.8,-0.9 2.3,-1.1 3.3,-0.4 l 12.1,8.5 c 1,0.7 1.3,2.1 0.5,3 L 1266,586.7 c -0.8,0.9 -2.2,1.1 -3.3,0.3 z"
                class="st0" />

            <path
                id="rpmNeedle48"
                style="display:none"
                d="m 1279.8,601.1 -11.6,-9 c -1,-0.8 -1.2,-2.1 -0.3,-3 l 97.2,-105.8 c 0.8,-0.9 2.3,-1 3.3,-0.2 l 11.6,9 c 1,0.8 1.2,2.1 0.3,3 L 1283,600.8 c -0.7,1 -2.2,1.1 -3.2,0.3 z"
                class="st0" />

            <path
                id="rpmNeedle49"
                style="display:none"
                d="m 1296.2,615.9 -11.1,-9.5 c -1,-0.8 -1,-2.2 -0.2,-3 l 102.4,-101.1 c 0.9,-0.9 2.4,-0.9 3.3,0 l 11.1,9.6 c 1,0.8 1,2.2 0.2,3.1 l -102.4,101 c -0.9,0.7 -2.3,0.7 -3.3,-0.1 z"
                class="st0" />

            <path
                id="rpmNeedle50"
                style="display:none"
                d="m 1311.8,631.4 -10.6,-10 c -0.9,-0.9 -0.9,-2.2 0,-3 l 107.3,-96.2 c 0.9,-0.8 2.4,-0.8 3.3,0.1 l 10.6,10.1 c 0.9,0.9 0.9,2.2 0,3.1 L 1315,631.6 c -0.8,0.7 -2.3,0.7 -3.2,-0.2 z"
                class="st0" />

            <path
                id="rpmNeedle51"
                style="display:none"
                d="m 1326.6,647.7 -10.1,-10.5 c -0.9,-0.9 -0.8,-2.3 0.1,-3 l 112,-91.1 c 0.9,-0.8 2.4,-0.7 3.3,0.3 l 10.1,10.5 c 0.9,0.9 0.8,2.3 -0.1,3.1 l -112,91 c -1,0.7 -2.5,0.6 -3.3,-0.3 z"
                class="st0" />

            <path
                id="rpmNeedle52"
                style="display:none"
                d="m 1340.5,664.5 -9.5,-10.9 c -0.8,-0.9 -0.7,-2.3 0.3,-3 l 116.4,-85.8 c 1,-0.7 2.5,-0.5 3.3,0.4 l 9.5,11 c 0.8,1 0.7,2.3 -0.3,3 l -116.4,85.7 c -1,0.8 -2.5,0.6 -3.3,-0.4 z"
                class="st0" />

            <path
                id="rpmNeedle53"
                style="display:none"
                d="m 1353.5,682 -9,-11.3 c -0.8,-1 -0.6,-2.3 0.4,-3 l 120.5,-80.3 c 1,-0.7 2.5,-0.4 3.3,0.6 l 9,11.4 c 0.8,1 0.6,2.3 -0.4,3 l -120.5,80.2 c -1.1,0.6 -2.5,0.4 -3.3,-0.6 z"
                class="st0" />

            <path
                id="rpmNeedle54"
                style="display:none"
                d="m 1365.6,700.1 -8.4,-11.7 c -0.7,-1 -0.5,-2.3 0.6,-3 l 124.3,-74.6 c 1.1,-0.6 2.5,-0.3 3.2,0.7 l 8.4,11.8 c 0.7,1 0.5,2.4 -0.6,3 l -124.3,74.5 c -1,0.6 -2.4,0.3 -3.2,-0.7 z"
                class="st0" />

            <path
                id="rpmNeedle55"
                style="display:none"
                d="m 1376.8,718.6 -7.8,-12.1 c -0.7,-1 -0.3,-2.4 0.7,-2.9 l 127.9,-68.8 c 1.1,-0.6 2.5,-0.2 3.2,0.9 l 7.7,12.1 c 0.7,1.1 0.3,2.4 -0.7,3 L 1380,719.5 c -1.1,0.5 -2.5,0.2 -3.2,-0.9 z"
                class="st0" />

            <path
                id="rpmNeedle56"
                style="display:none"
                d="m 1387,737.7 -7.1,-12.4 c -0.6,-1.1 -0.2,-2.4 0.9,-2.9 l 131.1,-62.8 c 1.1,-0.5 2.5,-0.1 3.1,1 l 7.1,12.5 c 0.6,1.1 0.2,2.4 -0.9,2.9 l -131,62.7 c -1.1,0.5 -2.5,0 -3.2,-1 z"
                class="st0" />

            <path
                id="rpmNeedle57"
                style="display:none"
                d="m 1396.3,757.1 -6.5,-12.7 c -0.6,-1.1 -0.1,-2.4 1,-2.9 l 133.9,-56.6 c 1.1,-0.5 2.5,0 3.1,1.1 l 6.4,12.8 c 0.6,1.1 0.1,2.4 -1,2.9 l -133.9,56.5 c -1.1,0.5 -2.5,0 -3,-1.1 z"
                class="st0" />

            <path
                id="rpmNeedle58"
                style="display:none"
                d="m 1404.5,777 -5.8,-13 c -0.5,-1.1 0,-2.4 1.2,-2.8 l 136.5,-50.4 c 1.2,-0.4 2.5,0.1 3,1.3 l 5.8,13 c 0.5,1.1 0,2.4 -1.2,2.8 l -136.5,50.3 c -1.2,0.5 -2.5,-0.1 -3,-1.2 z"
                class="st0" />

            <path
                id="rpmNeedle59"
                style="display:none"
                d="m 1411.7,797.2 -5.1,-13.2 c -0.4,-1.1 0.1,-2.4 1.3,-2.7 l 138.7,-44 c 1.2,-0.4 2.5,0.3 2.9,1.4 l 5.1,13.3 c 0.4,1.2 -0.1,2.4 -1.3,2.8 l -138.7,44 c -1.1,0.2 -2.5,-0.5 -2.9,-1.6 z"
                class="st0" />

            <path
                id="rpmNeedle60"
                style="display:none"
                d="m 1417.9,817.7 -4.5,-13.4 c -0.4,-1.2 0.3,-2.4 1.4,-2.7 L 1555.4,764 c 1.2,-0.3 2.5,0.4 2.8,1.5 l 4.4,13.5 c 0.4,1.2 -0.3,2.4 -1.5,2.7 l -140.6,37.5 c -1,0.3 -2.3,-0.4 -2.6,-1.5 z"
                class="st0" />

            <path
                id="rpmNeedle61"
                style="display:none"
                d="m 1423,838.4 -3.8,-13.6 c -0.3,-1.2 0.4,-2.4 1.6,-2.6 L 1563,791.1 c 1.2,-0.3 2.4,0.5 2.8,1.7 l 3.7,13.6 c 0.3,1.2 -0.4,2.4 -1.6,2.6 l -142.1,31 c -1.3,0.3 -2.5,-0.4 -2.8,-1.6 z"
                class="st0" />

            <path
                id="rpmNeedle62"
                style="display:none"
                d="m 1427,859.3 -3.1,-13.7 c -0.3,-1.2 0.5,-2.3 1.7,-2.5 L 1569,818.6 c 1.2,-0.2 2.4,0.6 2.7,1.8 l 3,13.8 c 0.3,1.2 -0.5,2.3 -1.7,2.5 l -143.3,24.5 c -1.2,0.1 -2.4,-0.7 -2.7,-1.9 z"
                class="st0" />

            <path
                id="rpmNeedle63"
                style="display:none"
                d="m 1430,880.3 -2.4,-13.8 c -0.2,-1.2 0.6,-2.3 1.8,-2.5 l 144.3,-18 c 1.2,-0.2 2.4,0.7 2.6,1.9 l 2.3,13.9 c 0.2,1.2 -0.6,2.3 -1.8,2.5 l -144.2,17.9 c -1.3,0.2 -2.4,-0.7 -2.6,-1.9 z"
                class="st0" />

            <path
                id="rpmNeedle64"
                style="display:none"
                d="m 1431.9,901.5 -1.7,-13.9 c -0.1,-1.2 0.7,-2.3 1.9,-2.4 l 144.8,-11.3 c 1.2,-0.1 2.3,0.8 2.5,2 l 1.6,14 c 0.1,1.2 -0.7,2.3 -2,2.4 l -144.8,11.3 c -1.1,0 -2.2,-0.9 -2.3,-2.1 z"
                class="st0" />

            <path
                id="rpmNeedle65"
                style="display:none"
                d="m 1432.7,922.6 -1,-14 c -0.1,-1.2 0.8,-2.2 2.1,-2.3 l 145,-4.7 c 1.2,0 2.3,0.9 2.4,2.1 l 0.9,14 c 0.1,1.2 -0.9,2.2 -2.1,2.3 l -145,4.7 c -1.2,0.1 -2.2,-0.9 -2.3,-2.1 z"
                class="st0" />

            <path
                id="rpmNeedle66"
                style="display:none"
                d="m 1432.4,943.8 -0.2,-14 c 0,-1.2 1,-2.2 2.2,-2.2 l 144.9,1.9 c 1.2,0 2.2,1 2.2,2.2 l 0.2,14 c 0,1.2 -1,2.2 -2.2,2.2 L 1434.7,946 c -1.2,0 -2.2,-1 -2.3,-2.2 z"
                class="st0" />
</g>

        <g
            id="rpmDialArc">
    <path
        id="path1247"
        d="M913.1,481.3c17.5-1.8,35.2-2.7,52.8-2.7"
        class="st25" />

            <path
                id="path1249"
                d="M700.3,554.9c3.9-1.2,6.1-3.5,8.4-5.7c58.6-35.2,119-55.7,185.5-65.5"
                class="st26" />

            <path
                id="path1251"
                d="M542,725.8c12.8-24.5,28-47.8,45.5-69.8c17.5-22,37.2-42.5,58.9-61.1c12.3-10.6,25.3-20.6,38.7-30"
                class="st26" />

            <path
                id="path1253"
                d="M495.3,941.1c-3.8-67.6,8.2-136.3,38.6-198.8"
                class="st26" />

            <path
                id="path1255"
                d="M1108.9,499.1c-46.8-13.7-94.8-20.5-142.9-20.5"
                class="st26" />

            <path
                id="path1257"
                d="M1307.4,614.5c-50.9-48.4-112.7-88-180.9-109.8"
                class="st26" />

            <path
                id="path1259"
                d="M1418,790c-16.8-51.7-43.1-98.5-80.1-142.5c-5.5-6.6-11-13.3-17-19.6"
                class="st26" />

            <path
                id="path1261"
                d="M1436.7,941.1c3.7-45.7-0.6-90.7-13.7-134.9"
                class="st33" />

</g>

        <g
            id="RPMdialLGTicks">
            <rect
                id="RPMdialLGTick1"
                height="10.3"
                width="63"
                class="st0"
                transform="matrix(0.9975 -7.035885e-02 7.035885e-02 0.9975 -64.3811 40.7384)"
                y="929.1"
                x="514.6" />

            <polygon
                id="RPMdialLGTick2"
                points="533.6,794.8 537,784.9 597.1,800.9 593.7,810.9   "
                class="st0" />

            <polygon
                id="RPMdialLGTick3"
                points="609.1,662.9 616.3,654.7 665.8,689 658.6,697.2   "
                class="st0" />

            <polygon
                id="RPMdialLGTick4"
                points="731.8,563.1 741.7,557.7 774,605.8 764.1,611.2   "
                class="st0" />

            <polygon
                id="RPMdialLGTick5"
                points="885.4,508.7 896.7,506.7 907.6,562.3 896.3,564.2   "
                class="st0" />

            <polygon
                id="RPMdialLGTick6"
                points="1037.7,562.4 1049.7,506.8 1061,508.6 1049,564.3   "
                class="st0" />

            <polygon
                id="RPMdialLGTick7"
                points="1169.7,606.1 1203,557.6 1212.8,562.9 1179.5,611.4   "
                class="st0" />

            <polygon
                id="RPMdialLGTick8"
                points="1275,689.4 1325.2,654.5 1332.2,662.6 1282,697.5   "
                class="st0" />

            <polygon
                id="RPMdialLGTick9"
                points="1339.7,801.4 1400.2,784.7 1403.4,794.6 1342.9,811.3   "
                class="st0" />

            <polygon
                id="RPMdialLGTick10"
                points="1354.3,937.7 1355.2,927.4 1418.1,931.1 1417.1,941.4   "
                class="st28" />
</g>

        <g
            id="RPMdialSMTicks">

            <path
                id="path891"
                d="M528.2,851.2l0.6-3.4l47,6c-0.2,1.1-0.4,2.3-0.6,3.4L528.2,851.2z"
                class="st0" />

            <path
                id="path897"
                d="M534.4,822.4l0.9-3.4l46.2,9.1c-0.3,1.1-0.6,2.3-0.9,3.4L534.4,822.4z"
                class="st0" />

            <path
                id="path903"
                d="M524.3,880.2l0.3-3.5l47.5,2.9c-0.1,1.2-0.2,2.3-0.3,3.5L524.3,880.2z"
                class="st0" />

            <path
                id="path909"
                d="M522.8,909.3l0-3.5l47.8-0.2c0,1.1,0,2.3,0,3.5L522.8,909.3z"
                class="st0" />

            <path
                id="path915"
                d="M582.1,714.1l1.9-3l41.2,20.7c-0.6,1-1.3,2-1.9,3L582.1,714.1z"
                class="st0" />

            <path
                id="path921"
                d="M599.2,689.1l2.2-2.9l39.3,23.3c-0.7,1-1.4,1.9-2.2,2.9L599.2,689.1z"
                class="st0" />

            <path
                id="path927"
                d="M567,740.1l1.7-3.1l43,18c-0.6,1-1.1,2.1-1.7,3.2L567,740.1z"
                class="st0" />

            <path
                id="path933"
                d="M554,767l1.4-3.2l44.5,15.1c-0.5,1.1-1,2.2-1.4,3.3L554,767z"
                class="st0" />

            <path
                id="path939"
                d="M686.7,602.5l3-2.2l30.1,32.7c-1,0.7-2,1.5-3,2.2L686.7,602.5z"
                class="st0" />

            <path
                id="path945"
                d="M712.5,584.5l3.2-2l27.3,34.5c-1.1,0.7-2.1,1.4-3.2,2L712.5,584.5z"
                class="st0" />

            <path
                id="path951"
                d="M662.3,622.1l2.8-2.4l32.8,30.7c-0.9,0.8-1.9,1.6-2.8,2.4L662.3,622.1z"
                class="st0" />

            <path
                id="path957"
                d="M639.5,643.3l2.6-2.6l35.3,28.5c-0.9,0.9-1.7,1.7-2.6,2.6L639.5,643.3z"
                class="st0" />

            <path
                id="path963"
                d="M828.1,531.3l3.7-1.1l14.9,40.3c-1.2,0.4-2.4,0.8-3.7,1.1L828.1,531.3z"
                class="st0" />

            <path
                id="path969"
                d="M859.3,522.6l3.7-0.9l11.6,41.2c-1.2,0.3-2.5,0.6-3.7,0.9L859.3,522.6z"
                class="st0" />

            <path
                id="path975"
                d="M797.7,541.9l3.6-1.4l18.3,39.3c-1.2,0.5-2.4,0.9-3.5,1.4L797.7,541.9z"
                class="st0" />

            <path
                id="path981"
                d="M768.2,554.4l3.4-1.6l21.5,38.1c-1.2,0.5-2.3,1.1-3.4,1.6L768.2,554.4z"
                class="st0" />

            <path
                id="path987"
                d="M985.7,552.3l2.1-42.7l3.9,0.1l-2.2,42.7C988.3,552.4,987,552.3,985.7,552.3z"
                class="st0" />

            <path
                id="path993"
                d="M1014.6,553.9l5.6-42.4l3.8,0.4l-5.6,42.4C1017.2,554.2,1015.9,554,1014.6,553.9z"
                class="st0" />

            <path
                id="path999"
                d="M956.7,552.6l-1.3-42.8l3.9-0.1l1.3,42.8C959.3,552.5,958,552.6,956.7,552.6z"
                class="st0" />

            <path
                id="path1005"
                d="M927.8,554.8l-4.8-42.7l3.8-0.4l4.8,42.7C930.3,554.5,929,554.7,927.8,554.8z"
                class="st0" />

            <path
                id="path1011"
                d="M1125.8,579.9l19-39.4l3.5,1.3l-19,39.4C1128.2,580.8,1127,580.3,1125.8,579.9z"
                class="st0" />

            <path
                id="path1017"
                d="M1152.1,590.7l22-38l3.4,1.6l-22.1,38C1154.3,591.7,1153.2,591.2,1152.1,590.7z"
                class="st0" />

            <path
                id="path1023"
                d="M1098.8,570.9l15.8-40.6l3.6,1.1l-15.8,40.6C1101.2,571.6,1100,571.3,1098.8,570.9z"
                class="st0" />

            <path
                id="path1029"
                d="M1071,563.7l12.5-41.6l3.7,0.9l-12.5,41.6C1073.5,564.3,1072.3,564,1071,563.7z"
                class="st0" />

            <path
                id="path1035"
                d="M1245,650.7l33.3-31l2.8,2.4l-33.3,31C1246.9,652.3,1245.9,651.5,1245,650.7z"
                class="st0" />

            <path
                id="path1041"
                d="M1265.1,669.3l35.6-28.7l2.6,2.6l-35.6,28.7C1266.8,671,1265.9,670.1,1265.1,669.3z"
                class="st0" />

            <path
                id="path1047"
                d="M1223.5,633.6l30.8-33.1l3,2.2l-30.8,33.1C1225.4,635.1,1224.4,634.3,1223.5,633.6z"
                class="st0" />

            <path
                id="path1053"
                d="M1200.5,617.9l28.1-35.1l3.1,2l-28.1,35.1C1202.6,619.3,1201.6,618.6,1200.5,617.9z"
                class="st0" />

            <path
                id="path1059"
                d="M1327.5,755.5l43.2-18.4l1.6,3.1l-43.2,18.4C1328.6,757.6,1328.1,756.5,1327.5,755.5z"
                class="st0" />

            <path
                id="path1065"
                d="M1338.8,779.3l44.5-15.5l1.4,3.2l-44.5,15.5C1339.7,781.5,1339.3,780.4,1338.8,779.3z"
                class="st0" />

            <path
                id="path1071"
                d="M1314.3,732.5l41.8-21.2l1.9,3l-41.8,21.2C1315.6,734.5,1315,733.5,1314.3,732.5z"
                class="st0" />

            <path
                id="path1077"
                d="M1299.3,710.4l40.1-24l2.1,2.9l-40.1,24C1300.7,712.3,1300,711.4,1299.3,710.4z"
                class="st0" />

            <path
                id="path1083"
                d="M1362.8,883.8c-0.1-1.1-0.2-2.3-0.3-3.4l47.5-3.5l0.3,3.5L1362.8,883.8z"
                class="st28" />

            <path
                id="path1089"
                d="M1363.5,909.8c0-1.1,0-2.3,0-3.5l47.5-0.3l0,3.5L1363.5,909.8z"
                class="st28" />

            <path
                id="path1095"
                d="M1360,857.9c-0.2-1.1-0.4-2.3-0.6-3.4l47.2-6.6l0.5,3.4L1360,857.9z"
                class="st28" />

            <path
                id="path1101"
                d="M1354.2,828.9l46.8-9.7l0.8,3.4l-46.8,9.7C1354.8,831.2,1354.5,830.1,1354.2,828.9z"
                class="st28" />
</g>

        <g
            id="rpmDialDigits">
        <text
            id="rpmDialDigit0"
            class="st0 st2 st3"
            transform="matrix(1.0684 0 0 1 603.8179 951.9697)">0</text>

            <text
                id="rpmDialDigit1"
                class="st0 st2 st3"
                transform="matrix(1.0684 0 0 1 631.9463 843.0088)">2</text>

            <text
                id="rpmDialDigit2"
                class="st0 st2 st3"
                transform="matrix(1.0684 0 0 1 687.9175 740.7832)">4</text>

            <text
                id="rpmDialDigit3"
                class="st0 st2 st4"
                transform="matrix(1.0684 0 0 1 783.5767 681.5869)">8</text>

            <text
                id="rpmDialDigit4"
                class="st0 st2 st3"
                transform="matrix(1.0684 0 0 1 887.2461 646.4961)">9</text>

            <text
                id="rpmDialDigit5"
                class="st0 st2 st3"
                transform="matrix(1.0684 0 0 1 1006.2344 649.3525)">10</text>

            <text
                id="rpmDialDigit6"
                class="st0 st2 st3"
                transform="matrix(1.0684 0 0 1 1118.1006 690.2852)">11</text>

            <text
                id="rpmDialDigit7"
                class="st0 st2 st3"
                transform="matrix(1.0684 0 0 1 1187.2568 766.4355)">12</text>

            <text
                id="rpmDialDigit8"
                class="st0 st2 st3"
                transform="matrix(1.0684 0 0 1 1243.1904 854.9619)">13</text>

            <text
                id="rpmDialDigit9"
                class="st28 st2 st3"
                transform="matrix(1.0684 0 0 1 1262.5117 955.8613)">15</text>
    </g>

        <polygon
            id="divider"
            points="23,265.5 81.5,265 140.1,264.7 257.1,264 491.3,263.2 725.4,262.7 959.5,262.5 1193.6,262.7     1427.8,263.2 1661.9,264 1778.9,264.7 1837.5,265 1896,265.5 1837.5,266 1778.9,266.3 1661.9,267 1427.8,267.8 1193.6,268.3     959.5,268.5 725.4,268.3 491.3,267.8 257.1,267 140.1,266.3 81.5,266   "
            class="st8" />
    </g>

</svg>
