<?xml version="1.0" encoding="utf-8"?>
<!-- Svg Vector Icons : http://www.onlinewebfonts.com/icon -->
<!DOCTYPE svg PUBLIC "-//W3C//DTD SVG 1.1//EN" "http://www.w3.org/Graphics/SVG/1.1/DTD/svg11.dtd">
<svg version="1.1" xmlns="http://www.w3.org/2000/svg" xmlns:xlink="http://www.w3.org/1999/xlink" x="0px" y="0px" viewBox="0 0 1000 1000" enable-background="new 0 0 1000 1000" xml:space="preserve">
<metadata> Svg Vector Icons : http://www.onlinewebfonts.com/icon </metadata>
<g><g transform="translate(0.000000,511.000000) scale(0.100000,-0.100000)"><path d="M2319.8,4972.2c-259.8-67.7-526.1-270.7-670.2-510.8c-122.2-203-159.4-401.7-159.4-873.2v-410.4h312.2h310v399.5c2.2,270.7,10.9,423.5,30.6,480.2c37.1,109.1,139.7,224.8,251,283.8l89.5,48l2800.7,6.5c1840.2,2.2,2831.3-2.2,2883.7-17.5c135.3-34.9,262-141.9,320.9-268.5l52.4-113.5V102.1v-3896.6l-45.8-93.9c-54.6-115.7-187.8-231.4-301.3-264.1c-113.5-34.9-5605.8-37.1-5728-2.2c-104.8,28.4-244.5,152.8-303.4,268.5c-39.3,76.4-48,137.5-54.6,438.8c-10.9,462.8-6.5,478.1,107,510.8c111.3,34.9,207.4,133.1,227,233.6c15.3,80.8-34.9,246.7-89.5,292.5c-45.8,37.1-1375.2,37.1-1421.1-2.2c-102.6-85.1-126.6-275.1-45.8-392.9c76.4-115.7,168.1-150.6,403.8-150.6h200.8v-399.5c0-220.5,10.9-458.4,24-530.4c54.6-307.8,283.8-622.1,554.5-766.2c279.4-146.3,65.5-137.5,3263.5-137.5c2599.9,0,2907.7,4.4,3014.6,34.9c185.6,54.6,312.2,128.8,462.8,270.7c150.6,139.7,248.9,301.2,314.4,513c37.1,124.4,39.3,307.8,39.3,4082.1v3951.1l-48,152.8c-89.5,288.1-314.3,554.5-563.2,676.7c-257.6,124.4-120.1,120.1-3230.8,117.9C2704,5009.3,2450.8,5005,2319.8,4972.2z"/><path d="M5175.1,2959.5c-585-107-1082.7-475.9-1338.1-993.2c-141.9-288.2-172.5-427.9-172.5-764c-2.2-266.3,4.4-296.9,74.2-502.1c155-456.2,545.7-1146,1032.5-1824.9c268.5-375.5,565.4-759.7,585-761.8c17.5,0,423.5,454,663.6,742.2C6679.1-354.2,7141.9,388,7255.4,842.1c117.9,467.1-24,1032.5-368.9,1464.8c-220.5,277.2-595.9,521.7-953.9,620C5782,2966.1,5325.7,2987.9,5175.1,2959.5z M5740.5,1717.4c141.9-72,240.1-168.1,305.6-301.3c150.6-307.8,13.1-687.6-305.6-844.8c-152.8-76.4-371.1-78.6-528.3-4.4c-211.7,98.2-382,351.5-382,569.8c0,259.8,187.7,515.2,451.9,613.4C5397.8,1793.8,5624.8,1778.6,5740.5,1717.4z"/><path d="M931.5,2507.7c-148.4-137.5-117.9-397.3,58.9-491.2c56.8-30.6,122.2-39.3,286-39.3h213.9v-633.1V711.1h305.6h305.6l2.2,104.8c0,56.7,2.2,336.2,2.2,622.1c2.2,362.4,8.7,523.9,26.2,528.3c13.1,4.4,50.2,13.1,83,19.6c89.5,19.6,187.7,115.7,216.1,211.7c32.7,104.8,2.2,229.2-74.2,301.2c-52.4,48-63.3,48-713.8,52.4C988.2,2555.7,981.7,2555.7,931.5,2507.7z"/><path d="M933.7,51.9c-113.5-89.5-128.8-318.7-30.6-425.7c91.7-96,155-115.7,379.8-115.7h207.4v-633.1v-633h305.6c229.2,0,305.6,6.5,307.8,28.4c2.2,13.1,4.4,294.7,4.4,624.3l4.4,598.1l102.6,30.6c231.4,67.7,310,347.1,139.7,506.4c-50.2,48-63.3,48-713.8,52.4C1045,89,975.1,84.6,933.7,51.9z"/></g></g>
</svg>